<svg xmlns="http://www.w3.org/2000/svg" width="1800" viewBox="0 0 1350 300" height="400" version="1.0"><path fill="#7ae8b3" d="M69.492 72.848c-12.387 0-12.43 106.816-12.43 121.324 0 17.605 26.739 17.492 26.739 38.062 0 5.024.011 9.856.02 14.567-.919 13.773-14.141 22.035-23.618 14.351-9.473-7.687-8.785-16.054-10.672-27.261-4.148-24.715-28.133-51.676-30.586-86.934-2.761-39.57 3.106-77.121 25.86-100.848 29.453-30.707 54.867-14.726 102.46-27.48C215.72.289 294.888 43.195 275.59 146.957c-8.059 43.316 5.094 83.406-27.516 105.3-31.496 21.145-40.816-7.94-40.918-13.839l-.258-15.047c0-4.148 1.75-6.27 12.266-14.277 38.117-29.031 19.035-137.602-21.848-137.602-40.882-.004-59.964 108.57-21.847 137.602 10.515 8.008 12.265 10.129 12.265 14.281-.082 4.934-.086 4.992-.25 14.805-.168 9.808-3.066 31.28-19.453 33.523-1.367.188-7.062 1.274-8.46 1.406-5.192 0-7.61.914-12.305 2.172-7.72 2.063-12.715.52-22.176 4.649-9.465 4.129-22.57-8.418-22.567-19.637.012-11.211.051-18.133.051-28.059 0-20.57 26.742-20.457 26.742-38.062 0-14.508-.043-121.324-12.43-121.324-1.425 0-3.698 2.187-3.698 6.449v65.941c.023 9.489-.31 16.739-6.579 16.739-6.27 0-5.77-12.938-5.77-16.985 0-1.078-2.843-64.023-2.91-65.02-.35-5.187-1.265-8.48-4.742-8.48-3.472-.004-4.914 3.293-5.261 8.48-.07.997-2.39 63.942-2.39 65.02 0 4.047.503 16.985-5.766 16.985-6.27 0-6.598-7.25-6.579-16.739V79.297c0-4.262-2.273-6.45-3.699-6.45zm228.547 66.367c-5.59.418-7.969.84-9.793-5.727-1.82-6.566-1.676-18.586 4.317-18.543 5.984.047 14.421 4.66 12.324 15.48-1.219 6.274-1.254 8.38-6.848 8.79zm-10.809 55.144c-4.59-1.02-4.953-14.824-4.425-21.547.527-6.722 1.015-29.87 12.215-24.988 11.195 4.883 10.277 10.809 5.332 20.594-2.872 5.672-8.536 26.96-13.122 25.941zm-271.777 6.746c4.309-1.875 9.063 1.762 12.594 7.512 3.535 5.738 16.781 24.73 4.855 27.383-11.925 2.648-19.324-5.305-21.09-16.121-1.023-6.274-.664-16.899 3.641-18.774" fill-rule="evenodd"/><path d="M510.574 148.352c2.062 0 3.687.72 4.875 2.157 1.187 1.43 1.781 2.976 1.781 4.64 0 1.656-.594 3.242-1.781 4.75-1.188 1.512-2.813 2.344-4.875 2.5-18.563 1.106-30.54 1.977-35.922 2.61.633 18.406-3.652 35.062-12.86 49.968-7.773 12.844-17.124 21.723-28.062 26.641-5.086 2.062-10.324 3.25-15.719 3.562-5.386.32-10.62-.668-15.703-2.968-5.074-2.293-8.875-5.899-11.406-10.813-6.187-11.738-3.18-25.695 9.031-41.875 8.407-11.101 18.797-19.75 31.172-25.937 6.188-3.008 12.77-5.547 19.75-7.61-.48-4.445-1.511-8.968-3.094-13.562-3.011-8.094-8.289-14.516-15.828-19.266-7.53-4.758-15.422-6.191-23.672-4.297a722.456 722.456 0 0 1-5.937 2.141h-.484c-.157.168-.313.25-.47.25-1.116.625-2.226.86-3.327.703-3.18.637-5.48-.43-6.907-3.203-1.43-2.781-1.109-5.281.954-7.5.632-.79 1.703-2.14 3.203-4.047 1.508-1.906 2.738-3.332 3.687-4.281 2.696-2.695 4.922-4.992 6.672-6.89 3.164-3.49 6.656-8.645 10.469-15.47 1.738-3.02 2.926-5.476 3.562-7.375a62.412 62.412 0 0 0 1.188-4.53c.32-1.427.484-2.298.484-2.61.469-5.07-.246-9.195-2.14-12.375 0 0-.164-.274-.485-.828-.312-.551-.59-.985-.828-1.297-.242-.32-.36-.485-.36-.485 0-.164-.198-.406-.593-.718-.398-.32-.672-.563-.828-.719l-.235-.234c-1.43-1.27-3.257-2.223-5.484-2.86-4.594-1.426-9.433-1.031-14.516 1.188-8.085 3.492-14.43 8.57-19.03 15.234V83.884c0 4.125-.165 11.5-.485 22.125-.313 10.625-.387 18.875-.219 24.75 0 2.699.035 9.64.11 20.828.082 11.18.203 19.855.359 26.031.156.324 1.11 16.266 2.86 47.828.155 2.54-.919 4.524-3.22 5.953-2.304 1.426-4.726 1.781-7.265 1.063-2.531-.711-4.031-2.414-4.5-5.11-2.387-13.8-4.45-29.664-6.188-47.593-3.023-28.707-4.687-44.723-5-48.047-.156-3.176-.476-8.133-.953-14.875a1822.56 1822.56 0 0 1-1.203-17.953 252.286 252.286 0 0 1-.469-15c0-4.282.16-12.29.485-24.032.468-11.738 2.05-20.066 4.75-24.984 1.593-3.164 4.488-4.79 8.687-4.875 4.207-.082 7.102 1.543 8.688 4.875.945 2.219 1.738 4.68 2.375 7.375a48.878 48.878 0 0 1 10-8.094c12.531-7.77 24.66-10.226 36.39-7.375 7.614 1.75 13.758 5.64 18.438 11.672 4.687 6.024 7.504 13.078 8.453 21.172.79 7.293-.164 14.547-2.86 21.766-2.687 7.218-6.574 13.683-11.656 19.39a65.054 65.054 0 0 1-4.75 4.281 52.751 52.751 0 0 1 9.985 3.329c13.8 5.875 23.797 16.507 29.984 31.89a72.167 72.167 0 0 1 3.094 10.469c11.894-1.906 24.504-2.703 37.828-2.39zm-74.234 56.875zm12.14-24.265c.946-3.813 1.66-7.301 2.14-10.469-4.448 1.586-8.573 3.406-12.374 5.469-9.524 5.23-17.293 11.73-23.313 19.5-9.68 12.699-12.136 21.105-7.375 25.218.946.805 2.375 1.043 4.282.72 1.738-.157 4.035-.79 6.89-1.907 1.27-.633 2.781-1.426 4.531-2.375.79-.633 1.82-1.348 3.094-2.14l.344-.36c.238-.238.516-.473.828-.703l.484-.36c1.907-1.593 3.57-3.18 5-4.765l.594-.594.703-.703.72-.719.593-.594c0-.164.16-.328.484-.484 2.531-3.488 4.989-7.453 7.375-11.89a25.867 25.867 0 0 0 1.906-4.282c.157 0 .27-.195.344-.594.082-.394.125-.593.125-.593.957-2.54 1.832-5 2.625-7.375zm0 0" fill="#fff"/><path d="M586.685 132.9c1.582-1.427 3.484-1.583 5.703-.47 2.227 1.106 2.945 2.766 2.156 4.985-.96 2.855-2.312 5.87-4.062 9.047-1.742 3.168-3.762 6.375-6.063 9.625-2.293 3.25-4.867 6.07-7.718 8.453-2.856 2.375-5.793 4.277-8.813 5.703-3.012 1.43-6.226 1.906-9.64 1.437-3.407-.476-6.618-2.066-9.626-4.765-2.855-2.531-5.078-5.781-6.671-9.75-5.868 5.867-12.684 9.039-20.454 9.515-6.824.48-12.855-1.101-18.093-4.75-5.23-3.656-8.953-8.296-11.172-13.921-2.219-5.633-3.293-11.782-3.219-18.438.082-6.664 1.629-12.695 4.64-18.094 2.852-5.55 7.055-10.03 12.61-13.437 5.55-3.406 11.422-5.031 17.61-4.875 10.468 0 18.874 3.808 25.218 11.422.477-1.114 1.27-2.817 2.375-5.11 1.113-2.3 1.91-3.93 2.39-4.89 1.102-2.532 3.126-3.16 6.063-1.89 2.938 1.26 3.926 3.241 2.97 5.937-3.169 9.992-5.626 19.507-7.376 28.546-2.531 12.375-1.976 21.34 1.672 26.891 1.113 1.742 2.46 2.813 4.047 3.219 1.582.398 3.164.12 4.75-.828 1.594-.957 3.18-2.192 4.765-3.703 1.582-1.508 3.207-3.332 4.875-5.47a147.815 147.815 0 0 0 4.407-5.952c1.27-1.82 2.535-3.524 3.797-5.11 1.27-1.582 2.222-2.691 2.859-3.328zm-68.516 13.077c1.27.637 2.578.953 3.922.953 1.344 0 2.57-.156 3.688-.468 1.113-.32 2.222-.836 3.328-1.547a22.337 22.337 0 0 0 2.969-2.266c.875-.789 1.828-1.781 2.859-2.969 1.031-1.195 1.863-2.226 2.5-3.093a56.702 56.702 0 0 0 2.14-3.219c.157-.945.317-1.816.485-2.61.789-4.601 2.14-9.519 4.047-14.75-8.887-7.3-16.742-8.968-23.563-5-3.492 2.063-6.105 5.075-7.843 9.032-1.43 2.867-2.227 6.043-2.391 9.531v4.516c.164.156.25.476.25.953.156.793.39 1.742.703 2.844.32.804.563 1.359.719 1.671 1.582 3.18 3.644 5.32 6.187 6.422zm0 0" fill="#fff"/><path d="M619.278 93.4c6.5-.79 12.008 1.073 16.532 5.593 4.52 4.523 6.539 10.031 6.062 16.531-.637 7.617-3.57 12.93-8.797 15.938-3.492 2.23-7.101 2.75-10.828 1.562-3.73-1.195-6.152-3.695-7.266-7.5-.949-3.332.04-5.71 2.97-7.14 2.937-1.426 5.519-1.032 7.75 1.187.944-.476 1.5-.875 1.655-1.187.957-.79 1.594-2.063 1.907-3.813.632-3.164-.235-5.625-2.61-7.375-2.867-1.27-5.648-1.426-8.343-.469-2.688.95-5.141 2.453-7.36 4.516-3.812 3.648-6.195 9.516-7.14 17.61v1.906c.468 5.074.785 12.054.953 20.937.312 3.012.347 6.656.109 10.938-.242 4.28-.992 7.773-2.25 10.468-1.43 2.375-3.414 3.485-5.953 3.328-2.543-.156-4.527-1.343-5.953-3.562-.156 0-.235.078-.235.234-.793-1.27-1.468-2.851-2.03-4.75-.556-1.906-.907-3.375-1.063-4.406-.157-1.031-.32-2.93-.485-5.703-.156-2.781-.234-4.332-.234-4.656-.156-2.532-.477-6.133-.953-10.813-.469-4.687-.703-7.504-.703-8.453-1.118-11.894-2.621-24.348-4.516-37.36-.324-2.85.664-5.07 2.969-6.656 2.3-1.582 4.562-1.265 6.781.954 3.645 3.648 6.578 8.484 8.797 14.515 5.394-7.133 12.14-11.258 20.234-12.375zm6.657 26.171c.312.313.55.633.718.953a3.679 3.679 0 0 1-.718-.953zM889.536 257.321c.32 8.25-1.938 15.899-6.782 22.953-4.835 7.063-11.136 12.18-18.906 15.36-8.73 3.332-17.062 3.925-25 1.78-7.93-2.136-15.062-6.616-21.406-13.437-11.574-12.53-19.027-29.742-22.36-51.625-1.75-8.25-2.386-18.476-1.906-30.687.477-12.219 1.27-22.531 2.375-30.938a3649.572 3649.572 0 0 0 3.922-30.812c1.508-12.133 2.426-22.406 2.75-30.813a608.86 608.86 0 0 0 .235-16.656c0-5.394-1.075-10.867-3.22-16.422-2.136-5.55-5.343-9.988-9.624-13.312-5.555-3.813-10.75-4.688-15.594-2.625-4.836 2.062-8.601 6.031-11.297 11.906-1.742 4.117-3.324 10.617-4.75 19.5-.804 5.875-1.836 14.445-3.094 25.703-2.386 22.68-2.625 43.852-.718 63.516.312 2.855-.563 5.234-2.625 7.14-2.063 1.907-4.367 3.059-6.907 3.453-2.53.399-5.027-.078-7.484-1.421-2.46-1.352-3.93-3.457-4.406-6.313a398.6 398.6 0 0 1-1.781-11.422 238.38 238.38 0 0 1-1.313-11.187c-.312-3.489-.668-7.332-1.062-11.532a534.203 534.203 0 0 1-.954-11.187c-.242-3.25-.558-7.133-.953-11.656-.398-4.52-.75-8.285-1.062-11.297-.793-10.313-1.985-19.828-3.578-28.547-.157-.477-.356-1.629-.594-3.453-.242-1.82-.438-3.13-.594-3.922-.156-.8-.433-1.992-.828-3.578a77.244 77.244 0 0 0-1.078-3.922 604.33 604.33 0 0 0-1.063-3.453 23.07 23.07 0 0 0-1.437-3.563 15.948 15.948 0 0 0-2.016-3.093c-1.906-2.696-4.168-4.282-6.78-4.75-2.618-.477-5.075-.082-7.376 1.187-2.305 1.262-4.406 3.164-6.312 5.703-1.899 2.7-3.48 6.07-4.75 10.11-1.274 4.043-2.106 7.214-2.5 9.515-.399 2.305-.993 5.992-1.782 11.063-.48 2.855-.996 7.218-1.547 13.093-.554 5.868-1.07 10.227-1.546 13.079a1244.73 1244.73 0 0 1 1.187 43.296c0 3.493.035 8.649.11 15.47.081 6.823.16 12.374.234 16.655.082 4.282.082 9.36 0 15.235-.074 5.867-.266 11.258-.578 16.172a12.627 12.627 0 0 1-1.438 4.875c-.793 1.508-1.867 2.738-3.219 3.687-1.343.957-2.886 1.516-4.625 1.672-2.375.469-4.793-.055-7.25-1.562-2.46-1.5-3.851-3.438-4.171-5.813-1.586-10.469-2.696-21.176-3.329-32.125-.636-10.945-1.03-24.547-1.187-40.797-.156-16.258-.32-27.008-.484-32.25-.793-22.039-1.508-39.406-2.141-52.094-.156-1.27-.277-3.015-.36-5.234-.074-2.219-.109-4.082-.109-5.594 0-1.507-.12-3.21-.36-5.109-.241-1.906-.6-3.648-1.077-5.234-.157-.32-.39-.801-.703-1.438-.157-.476-.235-.797-.235-.953a56.727 56.727 0 0 1-.719-.703h-2.625c.165 1.43-.23 2.578-1.187 3.453-.95.867-2.023 1.383-3.219 1.547-1.187.156-2.375-.082-3.562-.719-1.188-.633-1.938-1.586-2.25-2.86-.477-2.218-.438-4.394.125-6.53.554-2.145 1.543-4.008 2.968-5.594 1.426-1.594 3.172-2.864 5.235-3.813 4.113-1.75 8.07-1.988 11.875-.719 3.812 1.274 7.144 3.73 10 7.375 1.594 2.22 2.984 5.075 4.172 8.563 1.187 3.492 1.937 6.11 2.25 7.86.32 1.742.8 4.913 1.437 9.515 0 .156.035.312.11.469.082.156.125.234.125.234 2.695-7.926 6.109-14.426 10.234-19.5 5.394-6.5 12.332-9.789 20.812-9.875 8.489-.082 15.586 2.969 21.297 9.156 5.551 5.875 9.914 15.555 13.094 29.032 1.426-5.07 3.086-9.672 4.984-13.797 3.176-7.133 7.739-13.004 13.688-17.61 5.945-4.601 12.648-6.984 20.11-7.14 8.406-.313 16.374 2.308 23.906 7.86 7.53 5.554 13.117 12.37 16.765 20.452 2.696 5.711 4.64 12.055 5.828 19.031 1.196 6.98 1.754 13.641 1.672 19.985a641.277 641.277 0 0 1-.594 19.984c-.48 7.617-1.433 18.367-2.859 32.25-1.43 13.875-2.297 22.953-2.61 27.235-1.75 21.898-1.433 39.421.954 52.578 3.644 20.144 9.91 33.234 18.797 39.265 5.226 3.645 11.093 4.282 17.593 1.907 6.344-2.23 10.704-5.965 13.079-11.204 2.382-5.23 2.468-10.218.25-14.968-2.375-4.762-5.153-6.746-8.329-5.953-2.699.789-5 .312-6.906-1.438-1.898-1.742-2.808-3.883-2.734-6.422.082-2.531 1.312-4.512 3.687-5.937 3.813-2.387 7.782-3.305 11.907-2.75 4.125.562 7.691 2.508 10.703 5.843 4.437 4.758 6.894 11.973 7.375 21.641zM949.466 132.9c1.582-1.427 3.485-1.583 5.703-.47 2.227 1.106 2.946 2.766 2.157 4.985-.961 2.855-2.313 5.87-4.063 9.047-1.742 3.168-3.762 6.375-6.062 9.625-2.293 3.25-4.868 6.07-7.72 8.453-2.855 2.375-5.792 4.277-8.812 5.703-3.011 1.43-6.226 1.906-9.64 1.437-3.406-.476-6.617-2.066-9.625-4.765-2.856-2.531-5.078-5.781-6.672-9.75-5.867 5.867-12.684 9.039-20.453 9.515-6.824.48-12.856-1.101-18.094-4.75-5.23-3.656-8.953-8.296-11.172-13.921-2.219-5.633-3.293-11.782-3.219-18.438.082-6.664 1.63-12.695 4.641-18.094 2.852-5.55 7.055-10.03 12.61-13.437 5.55-3.406 11.421-5.031 17.609-4.875 10.469 0 18.875 3.808 25.219 11.422.476-1.114 1.27-2.817 2.375-5.11 1.113-2.3 1.91-3.93 2.39-4.89 1.102-2.532 3.125-3.16 6.063-1.89 2.937 1.26 3.925 3.241 2.968 5.937-3.168 9.992-5.625 19.507-7.375 28.546-2.53 12.375-1.976 21.34 1.672 26.891 1.114 1.742 2.461 2.813 4.047 3.219 1.582.398 3.164.12 4.75-.828 1.594-.957 3.18-2.192 4.766-3.703 1.582-1.508 3.207-3.332 4.875-5.47a147.815 147.815 0 0 0 4.406-5.952c1.27-1.82 2.535-3.524 3.797-5.11 1.27-1.582 2.223-2.691 2.86-3.328zm-68.515 13.077c1.27.637 2.578.953 3.922.953 1.343 0 2.57-.156 3.687-.468 1.113-.32 2.223-.836 3.328-1.547a22.337 22.337 0 0 0 2.969-2.266c.875-.789 1.828-1.781 2.86-2.969 1.03-1.195 1.863-2.226 2.5-3.093a56.702 56.702 0 0 0 2.14-3.219c.156-.945.316-1.816.484-2.61.79-4.601 2.14-9.519 4.047-14.75-8.887-7.3-16.742-8.968-23.562-5-3.493 2.063-6.106 5.075-7.844 9.032-1.43 2.867-2.227 6.043-2.39 9.531v4.516c.163.156.25.476.25.953.156.793.39 1.742.702 2.844.32.804.563 1.359.72 1.671 1.581 3.18 3.644 5.32 6.187 6.422zm0 0" fill="#fff"/><path d="M1038.2 135.04c1.426-1.75 3.328-1.945 5.703-.594 2.383 1.344 3.18 3.125 2.39 5.344-1.905 4.762-3.296 8.094-4.17 10-.868 1.906-2.33 4.726-4.392 8.453-2.062 3.719-4.289 6.773-6.671 9.156a28.795 28.795 0 0 1-8.079 5.703c-7.148 3.336-14.054 3.297-20.718-.109-6.657-3.414-10.621-9.008-11.89-16.781-.313-1.75-.548-3.692-.704-5.828-.156-2.145-.2-3.93-.125-5.36.082-1.426.16-3.406.234-5.937.082-2.54.125-4.367.125-5.485.313-2.851.348-6.379.11-10.578-.23-4.207-1.059-7.66-2.485-10.36-1.273-2.218-2.82-3.644-4.64-4.28-1.825-.633-3.688-.594-5.594.125-1.906.71-3.73 2.015-5.469 3.921-4.125 3.813-6.824 8.18-8.094 13.094.32 3.961.485 6.574.485 7.844.156 2.219.39 5.039.703 8.453.32 3.406.598 6.34.828 8.797.238 2.46.438 5.277.594 8.453.164 3.168.172 6.024.015 8.563-.168 3.168-1.48 5.546-3.937 7.14-2.461 1.586-5.078 1.938-7.86 1.063-2.773-.875-4.554-2.817-5.343-5.828-1.906-6.977-3.172-18.875-3.797-35.688-.637-15.383.078-27.125 2.14-35.219.633-3.164 2.774-4.75 6.422-4.75 3.645 0 5.864 1.586 6.657 4.75.32 1.907.718 4.133 1.187 6.672 3.645-3.812 7.531-6.586 11.656-8.328 7.145-2.851 13.727-2.457 19.75 1.188 6.032 3.648 10.313 9.12 12.844 16.421 1.906 5.555 2.86 13.563 2.86 24.032 0 .312-.079 1.578-.235 3.797-.156 2.218-.234 4.086-.234 5.593 0 1.512.234 3.102.703 4.766.477 1.656 1.191 2.805 2.14 3.437 3.176 2.387 7.86.563 14.047-5.468a99.483 99.483 0 0 0 2.844-2.969 32.898 32.898 0 0 0 2.625-3.203c.79-1.113 1.582-2.188 2.375-3.219a341.6 341.6 0 0 0 2.61-3.453 75.88 75.88 0 0 0 2.39-3.328zm0 0" fill="#fff"/><path d="M1121.46 132.9c1.582-1.427 3.485-1.583 5.703-.47 2.227 1.106 2.946 2.766 2.157 4.985-.961 2.855-2.313 5.87-4.063 9.047-1.742 3.168-3.762 6.375-6.062 9.625-2.293 3.25-4.868 6.07-7.72 8.453-2.855 2.375-5.792 4.277-8.812 5.703-3.011 1.43-6.226 1.906-9.64 1.437-3.407-.476-6.617-2.066-9.625-4.765-2.856-2.531-5.078-5.781-6.672-9.75-5.867 5.867-12.684 9.039-20.453 9.515-6.824.48-12.856-1.101-18.094-4.75-5.23-3.656-8.953-8.296-11.172-13.921-2.219-5.633-3.293-11.782-3.219-18.438.082-6.664 1.63-12.695 4.641-18.094 2.852-5.55 7.055-10.03 12.61-13.437 5.55-3.406 11.421-5.031 17.609-4.875 10.468 0 18.875 3.808 25.218 11.422.477-1.114 1.27-2.817 2.375-5.11 1.114-2.3 1.91-3.93 2.391-4.89 1.102-2.532 3.125-3.16 6.063-1.89 2.937 1.26 3.925 3.241 2.968 5.937-3.168 9.992-5.625 19.507-7.375 28.546-2.53 12.375-1.976 21.34 1.672 26.891 1.114 1.742 2.461 2.813 4.047 3.219 1.582.398 3.164.12 4.75-.828 1.594-.957 3.18-2.192 4.766-3.703 1.582-1.508 3.207-3.332 4.875-5.47a147.815 147.815 0 0 0 4.406-5.952c1.27-1.82 2.535-3.524 3.797-5.11 1.27-1.582 2.223-2.691 2.86-3.328zm-68.515 13.077c1.27.637 2.578.953 3.921.953 1.344 0 2.57-.156 3.688-.468 1.113-.32 2.223-.836 3.328-1.547a22.337 22.337 0 0 0 2.969-2.266c.875-.789 1.828-1.781 2.86-2.969 1.03-1.195 1.863-2.226 2.5-3.093a56.702 56.702 0 0 0 2.14-3.219c.156-.945.316-1.816.484-2.61.79-4.601 2.14-9.519 4.047-14.75-8.887-7.3-16.742-8.968-23.562-5-3.493 2.063-6.106 5.075-7.844 9.032-1.43 2.867-2.227 6.043-2.39 9.531v4.516c.163.156.25.476.25.953.155.793.39 1.742.702 2.844.32.804.563 1.359.72 1.671 1.581 3.18 3.644 5.32 6.187 6.422zm0 0" fill="#fff"/><path d="M1213.054 136.696c2.218-1.894 4.394-1.812 6.53.25 2.145 2.063 2.188 4.203.126 6.422a81.985 81.985 0 0 1-5.953 5.828c-2.055 1.824-4.59 3.766-7.61 5.828a2987.253 2987.253 0 0 0-6.422 4.406c-1.273.868-3.968 2.57-8.093 5.11-4.118 2.543-6.493 4.047-7.125 4.515 1.257 11.899 2.129 22.047 2.61 30.454.944 18.242-1.274 32.273-6.657 42.109-3.336 6.187-8.016 10.906-14.047 14.156-6.024 3.258-12.445 4.332-19.266 3.219-6.03-1.117-10.87-3.734-14.515-7.86-3.649-4.117-5.868-8.949-6.657-14.5-.793-5.554-.793-11.222 0-17.015.79-5.79 2.22-11.145 4.282-16.063 3.007-6.5 7.129-12.242 12.36-17.234 5.237-5 11.663-9.96 19.28-14.89-.636-5.708-1.11-10.626-1.422-14.75-5.554 5.874-12.101 8.812-19.64 8.812-7.531 0-14.23-3.254-20.094-9.766-7.137-8.406-9.836-17.68-8.094-27.828 1.582-7.926 5.227-15.222 10.938-21.89 4.445-4.914 9.68-8.32 15.703-10.22 6.031-1.905 11.976-1.75 17.844.47V95.07c0-2.851 1.27-5.07 3.812-6.656 2.54-1.594 5.156-1.992 7.844-1.203 2.695.793 4.363 2.699 5 5.718 3.02 14.907 5.719 32.829 8.094 53.766.32 1.43.64 3.531.953 6.313.312 2.773.469 4.398.469 4.875 12.851-7.938 22.77-15 29.75-21.188zm-56.391-2.14c.633-.79 1.27-1.66 1.906-2.61-.637-8.562-1.031-16.734-1.187-24.516-3.97-1.257-7.86-.582-11.672 2.032-3.805 2.617-6.656 5.984-8.563 10.11-4.75 10.312-4.273 17.929 1.438 22.843 2.851 2.375 5.906 2.531 9.156.469 3.25-2.063 6.223-4.836 8.922-8.329zm7.61 82.328c.476-7.77.081-18.633-1.188-32.594-8.25 6.98-14.356 14.117-18.313 21.406-3.812 6.824-5.402 13.563-4.765 20.219.476 4.445 1.75 8.097 3.812 10.953 2.063 2.852 4.992 3.406 8.797 1.656 6.977-2.855 10.863-10.07 11.656-21.64zm0 0" fill="#fff"/><path d="M1284.169 133.134c1.594-2.063 3.656-2.336 6.188-.829 2.539 1.5 3.335 3.446 2.39 5.829-3.492 8.406-8.808 15.586-15.953 21.53-7.137 5.95-15.062 9.716-23.781 11.298-9.043 1.43-16.34 1.187-21.89-.719-8.563-3.32-14.993-9.031-19.282-17.125-2.856-5.707-4.559-11.89-5.11-18.547-.554-6.664.317-13.25 2.61-19.75 2.3-6.508 6.07-11.586 11.312-15.234 7.926-5.551 15.86-7.297 23.797-5.235 8.239 2.22 12.282 8.325 12.125 18.313 0 7.937-2.261 14.805-6.781 20.594-4.523 5.78-10.508 9.386-17.953 10.812 2.062 3.656 4.953 5.922 8.672 6.797 3.726.867 8.21 1.059 13.453.578 5.863-.633 10.383-2.062 13.562-4.281 8.239-5.863 13.786-10.54 16.641-14.031zm-44.25-23.313c-4.594 1.742-7.844 5.11-9.75 10.11-1.906 4.992-2.383 10.183-1.422 15.578 6.813-2.22 11.727-6.18 14.75-11.891 2.063-3.645 2.852-7.297 2.375-10.953-.156-2.063-.715-3.29-1.672-3.688-.949-.394-2.375-.113-4.281.844zm0 0" fill="#fff"/><path d="M1318.91 93.4c6.5-.79 12.009 1.073 16.532 5.593 4.52 4.523 6.54 10.031 6.063 16.531-.637 7.617-3.57 12.93-8.797 15.938-3.493 2.23-7.102 2.75-10.828 1.562-3.73-1.195-6.153-3.695-7.266-7.5-.95-3.332.039-5.71 2.969-7.14 2.937-1.426 5.52-1.032 7.75 1.187.945-.476 1.5-.875 1.656-1.187.957-.79 1.594-2.063 1.906-3.813.633-3.164-.234-5.625-2.61-7.375-2.866-1.27-5.648-1.426-8.343-.469-2.687.95-5.14 2.453-7.36 4.516-3.812 3.648-6.195 9.516-7.14 17.61v1.906c.469 5.074.785 12.054.953 20.937.313 3.012.348 6.656.11 10.938-.243 4.28-.993 7.773-2.25 10.468-1.43 2.375-3.415 3.485-5.954 3.328-2.543-.156-4.527-1.343-5.953-3.562-.156 0-.234.078-.234.234-.793-1.27-1.469-2.851-2.031-4.75-.555-1.906-.907-3.375-1.063-4.406-.156-1.031-.32-2.93-.484-5.703-.156-2.781-.235-4.332-.235-4.656-.156-2.532-.476-6.133-.953-10.813-.468-4.687-.703-7.504-.703-8.453-1.117-11.894-2.62-24.348-4.515-37.36-.325-2.85.664-5.07 2.968-6.656 2.301-1.582 4.563-1.265 6.782.954 3.644 3.648 6.578 8.484 8.796 14.515 5.395-7.133 12.141-11.258 20.235-12.375zm6.657 26.171c.313.313.55.633.719.953a3.679 3.679 0 0 1-.719-.953zm0 0" fill="#fff"/><path d="M504.634 148.041c2.063 0 3.688.719 4.875 2.156 1.188 1.43 1.781 2.977 1.781 4.64 0 1.657-.593 3.243-1.78 4.75-1.188 1.513-2.813 2.345-4.876 2.5-18.562 1.106-30.539 1.977-35.922 2.61.633 18.407-3.652 35.063-12.86 49.969-7.773 12.844-17.124 21.723-28.062 26.64-5.086 2.063-10.324 3.25-15.718 3.563-5.387.32-10.622-.668-15.704-2.969-5.074-2.293-8.875-5.898-11.406-10.812-6.187-11.738-3.18-25.695 9.031-41.875 8.407-11.102 18.797-19.75 31.172-25.938 6.188-3.007 12.77-5.546 19.75-7.609-.48-4.445-1.511-8.969-3.093-13.562-3.012-8.094-8.29-14.516-15.829-19.266-7.53-4.758-15.421-6.191-23.671-4.297a722.456 722.456 0 0 1-5.938 2.14h-.484c-.157.169-.313.25-.469.25-1.117.626-2.227.86-3.328.704-3.18.637-5.48-.43-6.906-3.203-1.43-2.782-1.11-5.282.953-7.5.633-.79 1.703-2.141 3.203-4.047 1.508-1.906 2.738-3.332 3.687-4.281 2.696-2.696 4.922-4.993 6.672-6.891 3.164-3.488 6.656-8.645 10.469-15.469 1.738-3.02 2.926-5.476 3.562-7.375a62.412 62.412 0 0 0 1.188-4.531c.32-1.426.484-2.297.484-2.61.47-5.07-.246-9.195-2.14-12.374 0 0-.164-.274-.485-.829-.312-.55-.59-.984-.828-1.296-.242-.32-.36-.485-.36-.485 0-.164-.198-.406-.593-.719-.398-.32-.672-.562-.828-.718l-.234-.235c-1.43-1.27-3.258-2.222-5.485-2.86-4.594-1.425-9.433-1.03-14.515 1.188-8.086 3.493-14.43 8.57-19.032 15.235V83.572c0 4.125-.164 11.5-.484 22.125-.313 10.625-.387 18.875-.219 24.75 0 2.7.035 9.64.11 20.828.082 11.18.203 19.856.359 26.032.156.324 1.11 16.265 2.86 47.828.156 2.539-.919 4.523-3.22 5.953-2.304 1.426-4.726 1.781-7.265 1.062-2.531-.71-4.031-2.414-4.5-5.109-2.387-13.8-4.45-29.664-6.188-47.594-3.023-28.707-4.687-44.722-5-48.047-.156-3.175-.476-8.132-.953-14.875a1822.56 1822.56 0 0 1-1.203-17.953 252.286 252.286 0 0 1-.469-15c0-4.281.16-12.289.485-24.031.469-11.738 2.05-20.066 4.75-24.984 1.594-3.164 4.488-4.79 8.687-4.875 4.207-.082 7.102 1.543 8.688 4.875.945 2.218 1.738 4.68 2.375 7.375a48.878 48.878 0 0 1 10-8.094c12.531-7.77 24.66-10.227 36.39-7.375 7.614 1.75 13.758 5.64 18.438 11.672 4.687 6.023 7.504 13.078 8.453 21.172.79 7.293-.164 14.547-2.86 21.765-2.687 7.219-6.574 13.684-11.656 19.39a65.054 65.054 0 0 1-4.75 4.282 52.751 52.751 0 0 1 9.985 3.328c13.8 5.875 23.797 16.508 29.984 31.89a72.167 72.167 0 0 1 3.094 10.47c11.894-1.907 24.504-2.703 37.828-2.391zM430.4 204.916zm12.14-24.266c.946-3.812 1.66-7.3 2.141-10.468-4.45 1.586-8.574 3.406-12.375 5.468-9.523 5.23-17.293 11.73-23.313 19.5-9.68 12.7-12.136 21.106-7.375 25.22.946.804 2.375 1.042 4.282.718 1.738-.156 4.035-.79 6.89-1.906 1.27-.633 2.782-1.426 4.532-2.375.789-.633 1.82-1.348 3.093-2.141 0 0 .114-.117.344-.36.238-.238.516-.472.828-.702.32-.239.485-.36.485-.36 1.906-1.594 3.57-3.18 5-4.765l.593-.594.703-.703.72-.72.593-.593c0-.164.16-.328.484-.484 2.532-3.488 4.989-7.453 7.375-11.89a25.867 25.867 0 0 0 1.907-4.282c.156 0 .27-.195.343-.594l.125-.594c.957-2.539 1.832-5 2.625-7.375zm0 0" fill="#545454"/><path d="M580.745 132.588c1.582-1.426 3.484-1.582 5.703-.469 2.227 1.106 2.945 2.766 2.156 4.985-.96 2.855-2.312 5.87-4.062 9.046-1.742 3.168-3.762 6.375-6.063 9.625-2.293 3.25-4.867 6.07-7.718 8.454-2.856 2.375-5.793 4.277-8.813 5.703-3.012 1.43-6.226 1.906-9.64 1.437-3.407-.476-6.618-2.066-9.625-4.765-2.856-2.532-5.079-5.782-6.672-9.75-5.868 5.867-12.684 9.039-20.453 9.515-6.825.48-12.856-1.101-18.094-4.75-5.23-3.656-8.953-8.297-11.172-13.922-2.219-5.633-3.293-11.781-3.219-18.437.082-6.664 1.63-12.696 4.64-18.094 2.852-5.55 7.055-10.031 12.61-13.437 5.551-3.407 11.422-5.032 17.61-4.875 10.468 0 18.875 3.808 25.218 11.421.477-1.113 1.27-2.816 2.375-5.109 1.114-2.3 1.91-3.93 2.39-4.89 1.102-2.532 3.126-3.16 6.063-1.891 2.938 1.262 3.926 3.242 2.97 5.937-3.169 9.992-5.626 19.508-7.376 28.547-2.531 12.375-1.976 21.34 1.672 26.89 1.113 1.743 2.461 2.813 4.047 3.22 1.582.398 3.164.12 4.75-.829 1.594-.957 3.18-2.191 4.766-3.703 1.582-1.508 3.207-3.332 4.875-5.468a147.815 147.815 0 0 0 4.406-5.954c1.27-1.82 2.535-3.523 3.797-5.109 1.27-1.582 2.222-2.691 2.86-3.328zm-68.516 13.078c1.27.637 2.579.953 3.922.953 1.344 0 2.57-.156 3.688-.469 1.113-.32 2.222-.836 3.328-1.546a22.337 22.337 0 0 0 2.969-2.266c.875-.79 1.828-1.781 2.86-2.969 1.03-1.195 1.862-2.226 2.5-3.094a56.702 56.702 0 0 0 2.14-3.218c.156-.946.316-1.817.484-2.61.79-4.601 2.14-9.52 4.047-14.75-8.887-7.3-16.742-8.968-23.563-5-3.492 2.063-6.105 5.075-7.843 9.032-1.43 2.867-2.227 6.043-2.39 9.53v4.516c.163.157.25.477.25.954.155.793.39 1.742.702 2.843.32.805.563 1.36.719 1.672 1.582 3.18 3.644 5.32 6.187 6.422zm0 0" fill="#545454"/><path d="M613.338 93.088c6.5-.79 12.008 1.074 16.532 5.594 4.52 4.523 6.539 10.03 6.062 16.53-.637 7.618-3.57 12.93-8.797 15.938-3.492 2.23-7.101 2.75-10.828 1.563-3.73-1.195-6.152-3.695-7.266-7.5-.949-3.332.04-5.711 2.97-7.14 2.937-1.426 5.519-1.032 7.75 1.187.945-.477 1.5-.875 1.655-1.188.958-.789 1.594-2.062 1.907-3.812.633-3.164-.235-5.625-2.61-7.375-2.867-1.27-5.648-1.426-8.343-.469-2.688.95-5.141 2.453-7.36 4.516-3.812 3.648-6.195 9.515-7.14 17.609v1.906c.468 5.075.785 12.055.953 20.938.312 3.012.347 6.656.11 10.937-.243 4.282-.993 7.774-2.25 10.469-1.43 2.375-3.415 3.484-5.954 3.328-2.543-.156-4.527-1.344-5.953-3.562-.156 0-.235.078-.235.234-.792-1.27-1.468-2.852-2.03-4.75-.555-1.906-.907-3.375-1.063-4.406-.157-1.031-.32-2.93-.485-5.703-.156-2.782-.234-4.332-.234-4.657-.156-2.53-.477-6.132-.953-10.812-.469-4.688-.703-7.504-.703-8.453-1.117-11.895-2.621-24.348-4.516-37.36-.324-2.851.664-5.07 2.969-6.656 2.3-1.582 4.562-1.265 6.781.953 3.645 3.649 6.578 8.485 8.797 14.516 5.395-7.133 12.14-11.258 20.234-12.375zm6.657 26.172c.312.312.55.633.718.953a3.679 3.679 0 0 1-.718-.953zM883.596 257.01c.32 8.25-1.938 15.898-6.781 22.953-4.836 7.062-11.137 12.18-18.907 15.36-8.73 3.331-17.062 3.925-25 1.78-7.93-2.136-15.062-6.617-21.406-13.437-11.574-12.531-19.027-29.742-22.36-51.625-1.75-8.25-2.386-18.477-1.906-30.687.477-12.22 1.27-22.532 2.375-30.938a3649.572 3649.572 0 0 0 3.922-30.812c1.508-12.133 2.426-22.407 2.75-30.813a608.86 608.86 0 0 0 .235-16.656c0-5.395-1.075-10.867-3.22-16.422-2.136-5.55-5.343-9.988-9.624-13.313-5.555-3.812-10.75-4.687-15.594-2.625-4.836 2.063-8.601 6.032-11.297 11.907-1.742 4.117-3.324 10.617-4.75 19.5-.804 5.875-1.836 14.445-3.093 25.703-2.387 22.68-2.625 43.851-.72 63.515.313 2.856-.562 5.235-2.624 7.141-2.063 1.906-4.367 3.059-6.906 3.453-2.532.399-5.028-.078-7.485-1.422-2.46-1.351-3.93-3.457-4.406-6.312a398.6 398.6 0 0 1-1.781-11.422 238.38 238.38 0 0 1-1.313-11.188c-.312-3.488-.668-7.332-1.062-11.53a534.203 534.203 0 0 1-.953-11.188c-.243-3.25-.559-7.133-.954-11.657-.398-4.52-.75-8.285-1.062-11.296-.793-10.313-1.984-19.829-3.578-28.547-.156-.477-.356-1.63-.594-3.453-.242-1.82-.437-3.13-.594-3.922-.156-.801-.433-1.993-.828-3.578a77.244 77.244 0 0 0-1.078-3.922 604.33 604.33 0 0 0-1.062-3.453 23.07 23.07 0 0 0-1.438-3.563 15.948 15.948 0 0 0-2.016-3.094c-1.906-2.695-4.168-4.281-6.78-4.75-2.618-.476-5.075-.082-7.376 1.188-2.305 1.262-4.406 3.164-6.312 5.703-1.899 2.7-3.48 6.07-4.75 10.11-1.274 4.042-2.106 7.214-2.5 9.515-.399 2.305-.993 5.992-1.782 11.062-.48 2.856-.996 7.22-1.546 13.094-.555 5.867-1.07 10.227-1.547 13.078a1244.73 1244.73 0 0 1 1.187 43.297c0 3.492.035 8.649.11 15.469.082 6.824.16 12.375.234 16.656.082 4.281.082 9.36 0 15.235-.074 5.867-.266 11.257-.578 16.171a12.627 12.627 0 0 1-1.438 4.875c-.793 1.508-1.867 2.739-3.218 3.688-1.344.957-2.887 1.516-4.625 1.672-2.375.469-4.793-.055-7.25-1.563-2.461-1.5-3.852-3.437-4.172-5.812-1.586-10.469-2.696-21.176-3.328-32.125-.637-10.946-1.032-24.547-1.188-40.797-.156-16.258-.32-27.008-.484-32.25-.793-22.04-1.508-39.406-2.14-52.094-.157-1.27-.278-3.015-.36-5.234-.075-2.219-.11-4.082-.11-5.594 0-1.508-.12-3.21-.36-5.11-.241-1.906-.6-3.648-1.077-5.234-.156-.32-.39-.8-.703-1.437-.157-.477-.235-.797-.235-.953a56.727 56.727 0 0 1-.718-.703h-2.625c.164 1.43-.23 2.578-1.188 3.453-.95.867-2.023 1.382-3.219 1.547-1.187.156-2.375-.082-3.562-.72-1.188-.632-1.938-1.585-2.25-2.859-.477-2.218-.438-4.394.125-6.53.554-2.145 1.543-4.009 2.969-5.595 1.425-1.593 3.171-2.863 5.234-3.812 4.113-1.75 8.07-1.988 11.875-.719 3.812 1.274 7.144 3.73 10 7.375 1.594 2.219 2.984 5.074 4.172 8.563 1.187 3.492 1.937 6.109 2.25 7.859.32 1.742.8 4.914 1.437 9.516 0 .156.035.312.11.468.082.157.125.235.125.235 2.695-7.926 6.11-14.426 10.234-19.5 5.395-6.5 12.332-9.79 20.813-9.875 8.488-.082 15.585 2.969 21.296 9.156 5.551 5.875 9.914 15.555 13.094 29.031 1.426-5.07 3.086-9.672 4.985-13.797 3.175-7.132 7.738-13.003 13.687-17.609 5.945-4.602 12.648-6.984 20.11-7.14 8.406-.313 16.374 2.308 23.906 7.859 7.53 5.554 13.117 12.37 16.765 20.453 2.696 5.71 4.64 12.055 5.828 19.031 1.196 6.98 1.754 13.64 1.672 19.985a641.277 641.277 0 0 1-.593 19.984c-.48 7.617-1.434 18.367-2.86 32.25-1.43 13.875-2.297 22.953-2.61 27.234-1.75 21.899-1.433 39.422.954 52.578 3.644 20.145 9.91 33.235 18.797 39.266 5.226 3.645 11.094 4.281 17.594 1.906 6.343-2.23 10.703-5.965 13.078-11.203 2.382-5.23 2.468-10.219.25-14.969-2.375-4.761-5.153-6.746-8.328-5.953-2.7.79-5 .313-6.907-1.437-1.898-1.742-2.808-3.883-2.734-6.422.082-2.531 1.312-4.512 3.687-5.938 3.813-2.386 7.782-3.304 11.907-2.75 4.125.563 7.691 2.508 10.703 5.844 4.437 4.758 6.894 11.973 7.375 21.64zM943.526 132.588c1.582-1.426 3.485-1.582 5.703-.469 2.227 1.106 2.946 2.766 2.157 4.985-.961 2.855-2.313 5.87-4.063 9.046-1.742 3.168-3.761 6.375-6.062 9.625-2.293 3.25-4.867 6.07-7.719 8.454-2.855 2.375-5.793 4.277-8.813 5.703-3.011 1.43-6.226 1.906-9.64 1.437-3.406-.476-6.617-2.066-9.625-4.765-2.856-2.532-5.078-5.782-6.672-9.75-5.867 5.867-12.684 9.039-20.453 9.515-6.824.48-12.856-1.101-18.094-4.75-5.23-3.656-8.953-8.297-11.172-13.922-2.219-5.633-3.293-11.781-3.219-18.437.083-6.664 1.63-12.696 4.641-18.094 2.852-5.55 7.055-10.031 12.61-13.437 5.55-3.407 11.421-5.032 17.609-4.875 10.469 0 18.875 3.808 25.219 11.421.476-1.113 1.27-2.816 2.375-5.109 1.113-2.3 1.91-3.93 2.39-4.89 1.102-2.532 3.125-3.16 6.063-1.891 2.937 1.262 3.926 3.242 2.968 5.937-3.167 9.992-5.625 19.508-7.375 28.547-2.53 12.375-1.976 21.34 1.672 26.89 1.114 1.743 2.461 2.813 4.047 3.22 1.582.398 3.164.12 4.75-.829 1.594-.957 3.18-2.191 4.766-3.703 1.582-1.508 3.207-3.332 4.875-5.468a147.815 147.815 0 0 0 4.406-5.954c1.27-1.82 2.535-3.523 3.797-5.109 1.27-1.582 2.223-2.691 2.86-3.328zm-68.515 13.078c1.27.637 2.578.953 3.922.953 1.343 0 2.57-.156 3.687-.469 1.113-.32 2.223-.836 3.328-1.546a22.337 22.337 0 0 0 2.969-2.266c.875-.79 1.828-1.781 2.86-2.969 1.03-1.195 1.863-2.226 2.5-3.094a56.702 56.702 0 0 0 2.14-3.218c.156-.946.316-1.817.484-2.61.79-4.601 2.141-9.52 4.047-14.75-8.886-7.3-16.742-8.968-23.562-5-3.492 2.063-6.106 5.075-7.844 9.032-1.43 2.867-2.227 6.043-2.39 9.53v4.516c.163.157.25.477.25.954.156.793.39 1.742.702 2.843.32.805.563 1.36.72 1.672 1.581 3.18 3.644 5.32 6.187 6.422zm0 0" fill="#545454"/><path d="M1032.26 134.729c1.426-1.75 3.328-1.946 5.703-.594 2.383 1.344 3.18 3.125 2.391 5.344-1.906 4.761-3.297 8.093-4.172 10-.867 1.906-2.328 4.726-4.39 8.453-2.063 3.718-4.29 6.773-6.672 9.156a28.795 28.795 0 0 1-8.078 5.703c-7.149 3.336-14.055 3.297-20.72-.11-6.655-3.413-10.62-9.007-11.89-16.78-.312-1.75-.547-3.692-.703-5.829-.156-2.144-.2-3.93-.125-5.36.082-1.425.16-3.405.234-5.937.082-2.539.125-4.367.125-5.484.313-2.852.348-6.379.11-10.578-.23-4.207-1.059-7.66-2.485-10.36-1.273-2.218-2.82-3.644-4.64-4.28-1.824-.634-3.688-.594-5.594.124-1.906.711-3.73 2.016-5.469 3.922-4.125 3.813-6.824 8.18-8.093 13.094.32 3.96.484 6.574.484 7.844.156 2.218.39 5.039.703 8.453.32 3.406.598 6.34.828 8.797.238 2.46.438 5.277.594 8.453.164 3.168.172 6.023.016 8.562-.168 3.168-1.48 5.547-3.938 7.14-2.46 1.587-5.078 1.938-7.86 1.063-2.773-.875-4.554-2.816-5.343-5.828-1.906-6.976-3.172-18.875-3.797-35.687-.637-15.383.078-27.125 2.14-35.219.633-3.164 2.774-4.75 6.423-4.75 3.644 0 5.863 1.586 6.656 4.75.32 1.906.719 4.133 1.187 6.672 3.645-3.813 7.532-6.586 11.657-8.328 7.144-2.852 13.726-2.457 19.75 1.187 6.03 3.649 10.312 9.121 12.843 16.422 1.907 5.555 2.86 13.563 2.86 24.031 0 .313-.078 1.579-.235 3.797-.156 2.219-.234 4.086-.234 5.594 0 1.512.234 3.102.703 4.766.477 1.656 1.191 2.804 2.14 3.437 3.176 2.387 7.86.563 14.048-5.469a99.483 99.483 0 0 0 2.843-2.968 32.898 32.898 0 0 0 2.625-3.203c.79-1.114 1.582-2.188 2.375-3.22a341.6 341.6 0 0 0 2.61-3.452 75.88 75.88 0 0 0 2.39-3.328zm0 0" fill="#545454"/><path d="M1115.52 132.588c1.582-1.426 3.485-1.582 5.703-.469 2.227 1.106 2.946 2.766 2.157 4.985-.961 2.855-2.313 5.87-4.063 9.046-1.742 3.168-3.762 6.375-6.062 9.625-2.293 3.25-4.867 6.07-7.719 8.454-2.856 2.375-5.793 4.277-8.813 5.703-3.011 1.43-6.226 1.906-9.64 1.437-3.406-.476-6.617-2.066-9.625-4.765-2.856-2.532-5.078-5.782-6.672-9.75-5.867 5.867-12.684 9.039-20.453 9.515-6.824.48-12.856-1.101-18.094-4.75-5.23-3.656-8.953-8.297-11.172-13.922-2.219-5.633-3.293-11.781-3.219-18.437.082-6.664 1.63-12.696 4.641-18.094 2.852-5.55 7.055-10.031 12.61-13.437 5.55-3.407 11.421-5.032 17.609-4.875 10.469 0 18.875 3.808 25.219 11.421.476-1.113 1.27-2.816 2.375-5.109 1.113-2.3 1.91-3.93 2.39-4.89 1.102-2.532 3.125-3.16 6.063-1.891 2.937 1.262 3.925 3.242 2.968 5.937-3.168 9.992-5.625 19.508-7.375 28.547-2.53 12.375-1.976 21.34 1.672 26.89 1.114 1.743 2.461 2.813 4.047 3.22 1.582.398 3.164.12 4.75-.829 1.594-.957 3.18-2.191 4.766-3.703 1.582-1.508 3.207-3.332 4.875-5.468a147.815 147.815 0 0 0 4.406-5.954c1.27-1.82 2.535-3.523 3.797-5.109 1.27-1.582 2.223-2.691 2.86-3.328zm-68.515 13.078c1.27.637 2.578.953 3.922.953 1.343 0 2.57-.156 3.687-.469 1.113-.32 2.223-.836 3.328-1.546a22.337 22.337 0 0 0 2.969-2.266c.875-.79 1.828-1.781 2.86-2.969 1.03-1.195 1.863-2.226 2.5-3.094a56.702 56.702 0 0 0 2.14-3.218c.156-.946.316-1.817.484-2.61.79-4.601 2.141-9.52 4.047-14.75-8.887-7.3-16.742-8.968-23.562-5-3.492 2.063-6.106 5.075-7.844 9.032-1.43 2.867-2.227 6.043-2.39 9.53v4.516c.163.157.25.477.25.954.156.793.39 1.742.702 2.843.32.805.563 1.36.72 1.672 1.581 3.18 3.644 5.32 6.187 6.422zm0 0" fill="#545454"/><path d="M1207.114 136.385c2.218-1.895 4.394-1.813 6.53.25 2.145 2.062 2.188 4.203.126 6.422a81.985 81.985 0 0 1-5.953 5.828c-2.055 1.824-4.59 3.765-7.61 5.828a2987.253 2987.253 0 0 0-6.421 4.406c-1.274.867-3.97 2.57-8.094 5.11-4.117 2.543-6.492 4.046-7.125 4.515 1.258 11.899 2.129 22.047 2.61 30.453.944 18.242-1.274 32.274-6.657 42.11-3.336 6.187-8.016 10.906-14.047 14.156-6.023 3.258-12.445 4.332-19.266 3.219-6.03-1.118-10.87-3.735-14.515-7.86-3.649-4.117-5.867-8.949-6.656-14.5-.793-5.554-.793-11.222 0-17.015.789-5.79 2.218-11.145 4.28-16.063 3.009-6.5 7.13-12.242 12.36-17.234 5.238-5 11.664-9.961 19.281-14.89-.636-5.708-1.109-10.626-1.421-14.75-5.555 5.874-12.102 8.812-19.641 8.812-7.531 0-14.23-3.254-20.094-9.766-7.137-8.406-9.836-17.68-8.094-27.828 1.582-7.926 5.227-15.223 10.938-21.89 4.445-4.915 9.68-8.321 15.703-10.22 6.031-1.906 11.977-1.75 17.844.47V94.76c0-2.852 1.27-5.07 3.812-6.656 2.54-1.594 5.157-1.993 7.844-1.204 2.695.793 4.363 2.7 5 5.72 3.02 14.905 5.719 32.827 8.094 53.765.32 1.43.64 3.531.953 6.312.312 2.774.469 4.399.469 4.875 12.851-7.937 22.77-15 29.75-21.187zm-56.391-2.14c.633-.79 1.27-1.661 1.906-2.61-.636-8.563-1.031-16.735-1.187-24.516-3.969-1.258-7.86-.582-11.672 2.031-3.805 2.618-6.656 5.985-8.563 10.11-4.75 10.312-4.273 17.93 1.438 22.844 2.851 2.375 5.906 2.53 9.156.468 3.25-2.062 6.223-4.836 8.922-8.328zm7.61 82.327c.476-7.77.081-18.633-1.188-32.593-8.25 6.98-14.356 14.117-18.313 21.406-3.812 6.824-5.402 13.562-4.765 20.219.476 4.445 1.75 8.097 3.812 10.953 2.063 2.851 4.992 3.406 8.797 1.656 6.977-2.856 10.863-10.07 11.656-21.64zm0 0" fill="#545454"/><path d="M1278.23 132.822c1.593-2.062 3.655-2.336 6.187-.828 2.539 1.5 3.336 3.445 2.39 5.828-3.492 8.407-8.808 15.586-15.953 21.532-7.137 5.949-15.062 9.714-23.781 11.296-9.043 1.43-16.34 1.188-21.89-.718-8.563-3.32-14.993-9.032-19.282-17.125-2.855-5.707-4.559-11.891-5.11-18.547-.554-6.664.317-13.25 2.61-19.75 2.3-6.508 6.07-11.586 11.312-15.235 7.926-5.55 15.86-7.296 23.797-5.234 8.239 2.219 12.282 8.324 12.125 18.313 0 7.937-2.261 14.804-6.78 20.593-4.524 5.782-10.509 9.387-17.954 10.813 2.062 3.656 4.953 5.922 8.672 6.797 3.726.867 8.21 1.058 13.453.578 5.863-.633 10.383-2.063 13.562-4.281 8.239-5.864 13.786-10.54 16.641-14.032zm-44.25-23.312c-4.595 1.742-7.845 5.11-9.75 10.11-1.907 4.991-2.384 10.183-1.423 15.577 6.813-2.218 11.727-6.18 14.75-11.89 2.063-3.645 2.852-7.297 2.375-10.953-.156-2.063-.715-3.29-1.672-3.688-.949-.394-2.375-.113-4.28.844zm0 0" fill="#545454"/><path d="M1312.97 93.088c6.5-.79 12.009 1.074 16.532 5.594 4.52 4.523 6.54 10.03 6.063 16.53-.637 7.618-3.57 12.93-8.797 15.938-3.492 2.23-7.102 2.75-10.828 1.563-3.73-1.195-6.153-3.695-7.266-7.5-.95-3.332.04-5.711 2.969-7.14 2.937-1.426 5.52-1.032 7.75 1.187.945-.477 1.5-.875 1.656-1.188.957-.789 1.594-2.062 1.906-3.812.633-3.164-.234-5.625-2.61-7.375-2.866-1.27-5.648-1.426-8.343-.469-2.687.95-5.14 2.453-7.36 4.516-3.812 3.648-6.195 9.515-7.14 17.609v1.906c.469 5.075.785 12.055.953 20.938.313 3.012.348 6.656.11 10.937-.243 4.282-.993 7.774-2.25 10.469-1.43 2.375-3.414 3.484-5.953 3.328-2.543-.156-4.528-1.344-5.954-3.562-.156 0-.234.078-.234.234-.793-1.27-1.469-2.852-2.031-4.75-.555-1.906-.906-3.375-1.063-4.406-.156-1.031-.32-2.93-.484-5.703-.156-2.782-.234-4.332-.234-4.657-.157-2.53-.477-6.132-.954-10.812-.468-4.688-.703-7.504-.703-8.453-1.117-11.895-2.62-24.348-4.515-37.36-.325-2.851.664-5.07 2.968-6.656 2.301-1.582 4.563-1.265 6.782.953 3.644 3.649 6.578 8.485 8.797 14.516 5.394-7.133 12.14-11.258 20.234-12.375zm6.657 26.172c.313.312.55.633.719.953a3.679 3.679 0 0 1-.719-.953zm0 0" fill="#545454"/></svg>