<svg xmlns="http://www.w3.org/2000/svg" xmlns:xlink="http://www.w3.org/1999/xlink" width="1080" zoomAndPan="magnify" viewBox="0 0 810 809.999993" height="1080" preserveAspectRatio="xMidYMid meet" version="1.0"><path fill="#00236a" d="M 412.695312 769.722656 L 74.722656 770.054688 C 74.722656 770.054688 74.722656 770.054688 74.390625 770.054688 C 43.96875 770.054688 32.269531 760.695312 17.894531 736.960938 C 2.851562 711.886719 -9.519531 591.542969 122.527344 591.542969 L 412.695312 591.542969 " fill-opacity="1" fill-rule="nonzero"/><path fill="#ff0000" d="M 8.867188 477.214844 C 8.199219 468.1875 8.199219 448.796875 20.566406 432.75 C 32.601562 417.707031 49.984375 413.027344 59.347656 411.355469 C 85.421875 406.34375 161.304688 408.683594 235.519531 408.683594 C 332.128906 408.347656 407.347656 408.015625 407.347656 408.015625 L 407.347656 545.410156 L 64.359375 545.410156 C 57.339844 543.402344 47.3125 539.390625 37.617188 531.367188 C 13.882812 512.3125 9.871094 484.566406 8.867188 477.214844 Z M 8.867188 477.214844 " fill-opacity="1" fill-rule="nonzero"/><path fill="#00236a" d="M 803.484375 269.28125 C 803.484375 269.28125 798.804688 202.757812 734.953125 139.910156 C 715.898438 121.1875 664.753906 75.722656 583.855469 51.988281 C 558.445312 44.632812 517.664062 36.945312 480.558594 34.605469 C 440.441406 31.929688 413.03125 31.929688 406.007812 31.929688 C 400.660156 31.929688 373.25 31.597656 331.128906 34.605469 C 294.355469 36.945312 253.570312 44.632812 228.5 51.988281 C 148.269531 75.722656 97.121094 121.1875 78.402344 139.910156 C 15.21875 202.757812 10.539062 269.28125 10.539062 269.28125 C 10.539062 269.28125 4.523438 301.375 19.566406 328.453125 C 34.273438 354.859375 88.429688 358.539062 88.429688 358.539062 L 725.261719 358.539062 C 725.261719 358.539062 780.085938 354.527344 794.792969 328.453125 C 809.503906 301.375 803.484375 269.28125 803.484375 269.28125 Z M 175.679688 312.070312 L 141.246094 294.019531 L 106.816406 312.070312 L 113.5 273.960938 L 85.753906 246.882812 L 124.199219 241.199219 L 141.246094 206.433594 L 158.296875 241.199219 L 196.742188 246.882812 L 168.996094 273.960938 Z M 308.394531 207.769531 L 273.964844 189.71875 L 239.53125 207.769531 L 246.214844 169.660156 L 218.46875 142.582031 L 256.914062 136.898438 L 273.964844 102.132812 L 291.011719 136.898438 L 329.457031 142.582031 L 301.710938 169.660156 Z M 441.109375 312.070312 L 406.679688 294.019531 L 372.246094 312.070312 L 378.929688 273.960938 L 351.183594 246.882812 L 389.628906 241.199219 L 406.679688 206.433594 L 423.726562 241.199219 L 462.171875 246.882812 L 434.425781 273.960938 Z M 572.152344 207.769531 L 537.722656 189.71875 L 503.289062 207.769531 L 509.972656 169.660156 L 482.226562 142.582031 L 520.671875 136.898438 L 537.722656 102.132812 L 554.769531 136.898438 L 593.214844 142.582031 L 565.46875 169.660156 Z M 703.195312 312.070312 L 668.765625 294.019531 L 634.332031 312.070312 L 641.019531 273.960938 L 613.269531 246.882812 L 651.714844 241.199219 L 668.765625 206.433594 L 685.8125 241.199219 L 724.257812 246.882812 L 696.511719 273.960938 Z M 703.195312 312.070312 " fill-opacity="1" fill-rule="nonzero"/><path fill="#ff0000" d="M 803.820312 477.214844 C 804.488281 468.1875 804.488281 448.796875 792.117188 432.75 C 780.085938 417.707031 762.703125 413.027344 753.339844 411.355469 C 727.265625 406.675781 651.046875 408.683594 576.832031 408.683594 C 480.222656 408.347656 405.007812 408.015625 405.007812 408.015625 L 405.007812 545.410156 L 747.992188 545.410156 C 755.011719 543.402344 765.042969 539.390625 774.734375 531.367188 C 798.804688 512.3125 802.816406 484.566406 803.820312 477.214844 Z M 803.820312 477.214844 " fill-opacity="1" fill-rule="nonzero"/><path fill="#00236a" d="M 400.324219 769.722656 L 738.296875 770.054688 C 738.296875 770.054688 738.296875 770.054688 738.632812 770.054688 C 769.054688 770.054688 780.753906 760.695312 795.128906 736.960938 C 810.171875 711.886719 822.539062 591.542969 690.492188 591.542969 L 400.328125 591.542969 " fill-opacity="1" fill-rule="nonzero"/></svg>