<?xml version="1.0" encoding="utf-8"?>
<!-- Generator: Adobe Illustrator 23.0.6, SVG Export Plug-In . SVG Version: 6.00 Build 0)  -->
<svg version="1.1" id="Capa_1" xmlns="http://www.w3.org/2000/svg" xmlns:xlink="http://www.w3.org/1999/xlink" x="0px" y="0px"
	 viewBox="0 0 88.44 43.69" style="enable-background:new 0 0 88.44 43.69;" xml:space="preserve">
<style type="text/css">
	.st0{fill:none;}
	.st1{fill:#FFFFFF;}
	.st2{fill:#00236A;}
	.st3{display:none;}
	.st4{display:inline;fill:none;stroke:#001D7E;stroke-miterlimit:10;}
	.st5{display:inline;fill:none;stroke:#009045;stroke-miterlimit:10;}
	.st6{display:inline;fill:none;stroke:#1D1D1B;stroke-miterlimit:10;}
	.st7{display:inline;fill:none;stroke:#E20613;stroke-width:0.5;stroke-miterlimit:10;}
	.st8{fill:url(#SVGID_1_);}
	.st9{opacity:0.5;clip-path:url(#SVGID_3_);fill:url(#SVGID_4_);}
	.st10{clip-path:url(#SVGID_6_);}
	.st11{fill-rule:evenodd;clip-rule:evenodd;fill:#F4DFE0;}
	.st12{fill-rule:evenodd;clip-rule:evenodd;fill:#F9EFF1;}
	.st13{fill-rule:evenodd;clip-rule:evenodd;fill:#F2F8FC;}
	.st14{fill-rule:evenodd;clip-rule:evenodd;fill:#F7E8E9;}
	.st15{fill-rule:evenodd;clip-rule:evenodd;fill:#F3D9D5;}
	.st16{fill-rule:evenodd;clip-rule:evenodd;fill:#DE9293;}
	.st17{fill-rule:evenodd;clip-rule:evenodd;fill:#E2EFF9;}
	.st18{fill-rule:evenodd;clip-rule:evenodd;fill:#EEF6FB;}
	.st19{fill-rule:evenodd;clip-rule:evenodd;fill:#A5BDDE;}
	.st20{fill-rule:evenodd;clip-rule:evenodd;fill:#D8E0F0;}
	.st21{fill-rule:evenodd;clip-rule:evenodd;fill:#0060A2;}
	.st22{fill-rule:evenodd;clip-rule:evenodd;fill:#002C7F;}
	.st23{fill-rule:evenodd;clip-rule:evenodd;fill:#003077;}
	.st24{fill-rule:evenodd;clip-rule:evenodd;fill:#D14B58;}
	.st25{fill-rule:evenodd;clip-rule:evenodd;fill:#000050;}
	.st26{fill-rule:evenodd;clip-rule:evenodd;fill:#CB0000;}
	.st27{fill:#000050;}
	.st28{fill-rule:evenodd;clip-rule:evenodd;fill:#00065F;}
	.st29{fill-rule:evenodd;clip-rule:evenodd;fill:#004084;}
	.st30{fill-rule:evenodd;clip-rule:evenodd;fill:#001271;}
	.st31{fill-rule:evenodd;clip-rule:evenodd;fill:#0069A9;}
	.st32{fill:#FF0000;}
	.st33{fill:#FFB851;}
	.st34{fill:#9EE357;}
	.st35{fill:#FF5C5C;}
	.st36{fill:#FF1515;}
	.st37{fill:#FFA910;}
	.st38{opacity:0.5;clip-path:url(#SVGID_8_);fill:url(#SVGID_9_);}
	.st39{clip-path:url(#SVGID_11_);}
	.st40{fill:#CB0000;}
	.st41{opacity:0.29;fill:url(#SVGID_12_);}
	.st42{clip-path:url(#SVGID_14_);fill:#00236A;}
	.st43{clip-path:url(#SVGID_14_);}
	.st44{clip-path:url(#SVGID_16_);}
	.st45{fill:#BF0000;}
	.st46{opacity:0.14;clip-path:url(#SVGID_14_);fill:url(#SVGID_17_);}
	.st47{stroke:#FF0000;stroke-width:6;stroke-miterlimit:10;}
	.st48{fill:#FFFFFF;stroke:#00236A;stroke-width:6;stroke-miterlimit:10;}
	.st49{clip-path:url(#SVGID_23_);fill:#00236A;}
	.st50{clip-path:url(#SVGID_23_);}
	.st51{clip-path:url(#SVGID_25_);}
	.st52{opacity:0.14;clip-path:url(#SVGID_23_);fill:url(#SVGID_26_);}
	.st53{opacity:0.5;clip-path:url(#SVGID_32_);fill:url(#SVGID_33_);}
	.st54{clip-path:url(#SVGID_35_);}
	.st55{opacity:0.5;clip-path:url(#SVGID_37_);fill:url(#SVGID_38_);}
	.st56{clip-path:url(#SVGID_40_);}
	.st57{fill:none;stroke:#000000;stroke-width:0.25;stroke-miterlimit:10;}
	.st58{fill:#FFFFFF;stroke:#000000;stroke-miterlimit:10;}
	.st59{fill:#DD5569;stroke:#000000;stroke-miterlimit:10;}
	.st60{fill:#FBF3F3;stroke:#000000;stroke-miterlimit:10;}
	.st61{fill:#6F6F6F;}
	.st62{fill:#EFC63D;}
	.st63{fill:#D28B21;}
	.st64{fill:#75CFF4;}
	.st65{fill:#75CFF3;}
	.st66{fill:none;stroke:#000000;stroke-width:0.5;stroke-miterlimit:10;}
</style>
<pattern  x="-3629.59" y="670.1" width="122.35" height="133.73" patternUnits="userSpaceOnUse" id="New_Pattern_2" viewBox="0 -135.78 122.35 133.73" style="overflow:visible;">
	<g>
		<rect y="-135.78" class="st0" width="122.35" height="133.73"/>
		<g>
			<g>
				<path class="st1" d="M117.92-112.36c0.02-0.13-0.02-0.27-0.1-0.38l-2.71-3.45c-0.08-0.11-0.21-0.17-0.34-0.19
					c-0.13-0.01-0.27,0.03-0.37,0.11l-3.12,2.61l-0.17-0.18l2.78-2.6c0.1-0.09,0.16-0.22,0.16-0.36c0-0.14-0.05-0.27-0.15-0.36
					l-3.09-3.11c-0.1-0.1-0.25-0.13-0.36-0.15c-0.13,0-0.26,0.06-0.36,0.16l-2.63,2.78l-0.29-0.33l2.76-2.58
					c0.1-0.09,0.16-0.22,0.16-0.36c0-0.14-0.05-0.27-0.15-0.36l-3.09-3.11c-0.09-0.1-0.2-0.15-0.36-0.15
					c-0.13,0-0.26,0.06-0.36,0.16l-2.63,2.77l-0.12-0.12l2.73-2.82c0.09-0.1,0.14-0.23,0.14-0.36c0-0.14-0.06-0.26-0.16-0.35
					l-3.24-2.95c-0.1-0.09-0.23-0.14-0.37-0.13c-0.14,0.01-0.26,0.07-0.35,0.17l-2.43,2.84l-1.73-1.43
					c-0.1-0.09-0.24-0.12-0.37-0.11c-0.13,0.01-0.26,0.08-0.34,0.19l-2.29,2.95c-0.09,0.02-0.18,0.07-0.24,0.14L73.3-99.99
					c-0.18,0.2-0.17,0.5,0.02,0.69l15.52,15.52c0.1,0.1,0.23,0.15,0.35,0.15c0.12,0,0.24-0.04,0.34-0.13l20.24-18.5l6.68-4.94
					c0.11-0.08,0.18-0.2,0.2-0.34c0.02-0.13-0.02-0.27-0.1-0.38l-1.61-2.05l2.79-2.06C117.83-112.11,117.9-112.23,117.92-112.36z
					 M103.92-105.08c-0.73-0.02-1.46-0.12-2.18-0.31h0c-0.19-0.05-0.38-0.1-0.57-0.17c-0.15-0.05-0.3-0.13-0.45-0.18l8.55-8.57
					l0.76,0.81l0.84,0.89l0.7,0.74L103.92-105.08z M99.04-106.57l5.89-4.82l-5.2,5.22C99.5-106.29,99.27-106.43,99.04-106.57z
					 M110.45-119.18l2.36,2.38l-2.41,2.25l-0.77-0.82c-0.09-0.1-0.22-0.15-0.36-0.16c0,0,0,0-0.01,0c-0.04,0-0.09,0.01-0.13,0.02
					l-1.04-1.19L110.45-119.18z M98.2-107.17c-0.31-0.25-0.57-0.47-0.79-0.7c-0.25-0.25-0.48-0.51-0.7-0.79c0,0,0,0,0,0c0,0,0,0,0,0
					c-0.1-0.13-0.19-0.26-0.29-0.4l9.44-8.72l0.23,0.26c0,0,0,0,0,0l0.96,1.11c0,0,0,0,0,0l1.01,1.16L98.2-107.17z M106.5-123.14
					l2.36,2.38l-2.36,2.21l-0.23-0.26c-0.09-0.1-0.21-0.16-0.35-0.17c-0.14-0.01-0.27,0.04-0.37,0.13l-9.7,8.95
					c-0.05-0.09-0.1-0.18-0.14-0.27l9.5-8.76c0.1-0.09,0.16-0.22,0.16-0.35c0-0.14-0.05-0.27-0.14-0.36l-1.04-1.07L106.5-123.14z
					 M95.29-111.13c-0.05-0.13-0.12-0.27-0.16-0.4c-0.16-0.46-0.28-0.93-0.37-1.41v0c-0.08-0.46-0.13-0.88-0.15-1.28l7.21-7.49
					l0.5,0.52l0.82,0.84c0,0,0,0,0,0l1.02,1.04L95.29-111.13z M102.55-126.95l2.48,2.26l-2.35,2.43l-0.51-0.52
					c-0.09-0.1-0.22-0.15-0.36-0.15c-0.11-0.04-0.27,0.06-0.36,0.15l-3.67,3.81l3.61-4.11c0.09-0.1,0.13-0.23,0.12-0.37
					c-0.01-0.14-0.08-0.26-0.18-0.35l-0.88-0.73L102.55-126.95z M97.73-125.48l1.71,1.41l0.87,0.72l-5.35,6.09
					c0.15-0.52,0.33-1.03,0.56-1.52c0,0,0,0,0,0c0.4-0.85,0.93-1.63,1.56-2.33c0.18-0.2,0.17-0.5-0.02-0.69l-1.24-1.24L97.73-125.48
					z M109.11-103.02C109.11-103.02,109.11-103.02,109.11-103.02l-19.9,18.19L74.36-99.67l20.74-22.69l0.93,0.93
					c-0.56,0.68-1.04,1.42-1.41,2.22c0,0,0,0,0,0c-0.53,1.12-0.86,2.33-0.97,3.59c-0.04,0.44-0.06,0.84-0.05,1.22v0c0,0,0,0,0,0
					c0.01,0.52,0.07,1.05,0.17,1.63l0,0c0,0,0,0,0,0c0.1,0.52,0.23,1.05,0.41,1.55c0.13,0.38,0.29,0.76,0.47,1.14c0,0,0,0,0,0
					c0.22,0.47,0.45,0.87,0.68,1.22c0,0,0,0,0,0c0.18,0.28,0.38,0.55,0.59,0.81c0,0,0,0,0,0c0.24,0.3,0.5,0.59,0.77,0.87
					c0.27,0.27,0.57,0.53,0.94,0.83c0,0,0,0,0,0l0,0l0.19,0.14l0.02-0.01c0.02,0.02,0.03,0.05,0.06,0.07
					c0.54,0.4,1.11,0.74,1.7,1.03c0,0,0,0,0,0c0.42,0.2,0.83,0.37,1.24,0.5c0.21,0.07,0.42,0.13,0.63,0.18l0,0
					c0.87,0.23,1.74,0.35,2.61,0.36l0.12,0c0.59,0,1.17-0.05,1.72-0.14c0.59-0.1,1.2-0.25,1.81-0.47c1.19-0.42,2.27-1.03,3.23-1.83
					l0.93,0.93L109.11-103.02z M112.99-105.89c0,0-0.01-0.01-0.01-0.01l-1.63-1.63c-0.19-0.19-0.49-0.2-0.69-0.02
					c-0.78,0.71-1.67,1.27-2.64,1.68l5.35-4.48l0.46,0.59c0,0,0,0,0,0l1.61,2.05L112.99-105.89z M114.31-110.75l-0.48-0.61
					c-0.08-0.11-0.21-0.17-0.34-0.19c-0.14-0.01-0.27,0.03-0.37,0.11l-7.49,6.27c-0.04,0.01-0.08,0.01-0.12,0.02l7.11-6.32
					c0.1-0.09,0.16-0.22,0.17-0.35c0.01-0.14-0.04-0.27-0.14-0.37l-0.69-0.73l2.68-2.24l2.08,2.64L114.31-110.75z"/>
				<path class="st1" d="M91.03-105.54c-1.38,0-2.68,0.54-3.66,1.51c-0.98,0.98-1.51,2.27-1.51,3.66c0,1.38,0.54,2.68,1.51,3.66
					c0.98,0.98,2.28,1.51,3.66,1.51c1.38,0,2.68-0.54,3.66-1.51c0.98-0.98,1.51-2.27,1.51-3.66c0-1.38-0.54-2.68-1.51-3.66
					C93.71-105,92.41-105.54,91.03-105.54z M93.98-97.42c-0.79,0.79-1.83,1.22-2.95,1.22c-1.11,0-2.16-0.43-2.95-1.22
					c-0.79-0.79-1.22-1.83-1.22-2.95c0-1.11,0.43-2.16,1.22-2.95c0.79-0.79,1.83-1.22,2.95-1.22c1.11,0,2.16,0.43,2.95,1.22
					c0.79,0.79,1.22,1.83,1.22,2.95C95.2-99.26,94.77-98.21,93.98-97.42z"/>
			</g>
			<g>
				<path class="st1" d="M23.64-123.18l-22.66,4.5c-0.27,0.05-0.45,0.32-0.39,0.59l0.62,3.14c0.05,0.27,0.32,0.45,0.59,0.39
					l22.66-4.5c0.27-0.05,0.45-0.32,0.39-0.59l-0.62-3.14C24.17-123.06,23.91-123.24,23.64-123.18z M6.88-118.84l2.1-0.42l0.43,2.16
					l-2.1,0.42L6.88-118.84z M6.33-116.48l-2.1,0.42l-0.43-2.16l2.1-0.42L6.33-116.48z M9.96-119.45l2.1-0.42l0.43,2.16l-2.1,0.42
					L9.96-119.45z M13.05-120.06l2.1-0.42l0.43,2.16l-2.1,0.42L13.05-120.06z M16.13-120.67l2.1-0.42l0.43,2.16l-2.1,0.42
					L16.13-120.67z M19.22-121.29l2.1-0.42l0.43,2.16l-2.1,0.42L19.22-121.29z M1.66-117.8l1.16-0.23l0.43,2.16l-1.16,0.23
					L1.66-117.8z M23.77-119.94l-1.04,0.21l-0.43-2.16l1.04-0.21L23.77-119.94z"/>
				<path class="st1" d="M24.62-118.22l-22.66,4.5c-0.14,0.03-0.26,0.11-0.33,0.24c-0.07,0.12-0.09,0.27-0.04,0.41l9.66,30.41
					c0.08,0.24,0.32,0.39,0.57,0.34l15.68-3.11c0.25-0.05,0.42-0.28,0.4-0.53l-2.68-31.79c-0.01-0.14-0.08-0.27-0.2-0.36
					C24.91-118.21,24.76-118.25,24.62-118.22z M26.87-86.34L12.06-83.4L2.7-112.85l21.57-4.28L26.87-86.34z"/>
				<path class="st1" d="M16.77-97.59c3.51-0.7,5.8-4.12,5.1-7.63c-0.7-3.51-4.12-5.8-7.63-5.1c-3.51,0.7-5.79,4.12-5.1,7.63
					C9.84-99.18,13.26-96.89,16.77-97.59z M14.44-109.33c2.97-0.59,5.86,1.35,6.45,4.31c0.59,2.97-1.35,5.86-4.31,6.45
					c-2.97,0.59-5.86-1.35-6.45-4.31C9.53-105.85,11.47-108.74,14.44-109.33z"/>
				<path class="st1" d="M10.83-121l2.81-0.56c0.27-0.05,0.45-0.32,0.39-0.59l-2.59-13.07c-0.05-0.27-0.32-0.45-0.59-0.39
					l-2.81,0.56c-0.27,0.05-0.45,0.32-0.39,0.59l2.59,13.07C10.3-121.12,10.56-120.94,10.83-121z M8.73-134.16l1.83-0.36l2.4,12.09
					l-1.83,0.36L8.73-134.16z"/>
			</g>
			<g>
				<path class="st1" d="M68.61-107.4l-6.74-6.74c-3.75-3.75-9.64-4.18-13.89-1.09l-14.32-14.32c-0.71-0.71-1.95-0.71-2.65,0
					c-0.35,0.35-0.55,0.83-0.55,1.33c0,0.5,0.2,0.97,0.55,1.33l14.3,14.3c-3.25,4.27-2.88,10.24,0.96,14.08l6.73,6.73l0.11,0.1
					c0.1,0.09,0.22,0.14,0.35,0.14c0.13,0,0.26-0.05,0.35-0.15l14.9-14.9c0.09-0.09,0.1-0.27,0.1-0.4
					C68.8-107.13,68.71-107.3,68.61-107.4z M31.46-128.22c0-0.23,0.09-0.45,0.26-0.62c0.17-0.17,0.39-0.26,0.62-0.26
					c0.23,0,0.45,0.09,0.62,0.26l14.24,14.24c-0.18,0.16-0.35,0.32-0.51,0.47l-0.42,0.42c-0.11,0.11-0.22,0.23-0.33,0.34
					L31.71-127.6C31.55-127.77,31.46-127.99,31.46-128.22z M53.44-92.75l-6.47-6.47c-3.58-3.58-3.84-9.21-0.62-13.1c0,0,0,0,0,0
					c0.19-0.24,0.4-0.46,0.62-0.69l0.42-0.42c0.25-0.25,0.53-0.49,0.85-0.75c3.87-3.07,9.43-2.74,12.93,0.75l6.47,6.47L53.44-92.75z
					"/>
				<path class="st1" d="M54.83-113.79c-0.3,0.3-0.47,0.7-0.47,1.13c0,0.43,0.17,0.83,0.47,1.13l6.33,6.33
					c0.3,0.3,0.7,0.47,1.13,0.47s0.83-0.17,1.13-0.47c0.62-0.62,0.62-1.63,0-2.26l-6.33-6.33C56.48-114.4,55.43-114.4,54.83-113.79z
					 M62.71-105.91c-0.23,0.23-0.62,0.22-0.84,0l-6.33-6.33c-0.11-0.11-0.17-0.26-0.17-0.42s0.06-0.31,0.17-0.42
					c0.11-0.11,0.26-0.17,0.42-0.17s0.31,0.06,0.42,0.18l6.33,6.33C62.95-106.52,62.95-106.14,62.71-105.91z"/>
				<path class="st1" d="M52.97-109.68c-0.6-0.6-1.65-0.61-2.26,0c-0.62,0.62-0.62,1.63,0,2.26l6.33,6.33
					c0.3,0.3,0.7,0.47,1.13,0.47c0.43,0,0.83-0.17,1.13-0.47c0.3-0.3,0.47-0.7,0.47-1.13c0-0.43-0.17-0.83-0.47-1.13L52.97-109.68z
					 M58.6-101.8c-0.23,0.22-0.62,0.23-0.84,0l-6.33-6.33c-0.23-0.23-0.23-0.61,0-0.84c0.11-0.11,0.26-0.18,0.42-0.18
					s0.31,0.06,0.42,0.18l6.33,6.33c0.11,0.11,0.17,0.26,0.17,0.42C58.77-102.06,58.71-101.91,58.6-101.8z"/>
				<path class="st1" d="M48.86-105.57c-0.6-0.6-1.65-0.6-2.26,0c-0.62,0.62-0.62,1.64,0,2.26l6.33,6.33c0.3,0.3,0.7,0.47,1.13,0.47
					c0.43,0,0.83-0.17,1.13-0.47c0.62-0.62,0.62-1.63,0-2.26L48.86-105.57z M54.49-97.68c-0.23,0.23-0.62,0.23-0.84,0l-6.33-6.33
					c-0.23-0.23-0.23-0.61,0-0.84c0.11-0.11,0.26-0.17,0.42-0.17c0.16,0,0.31,0.06,0.42,0.17l6.33,6.33
					C54.72-98.29,54.72-97.91,54.49-97.68z"/>
			</g>
			<g>
				<path class="st1" d="M48.83-47.87L33.32-63.39c-0.19-0.19-0.49-0.19-0.69-0.02l-20.23,18.5L5.7-39.96
					c-0.11,0.08-0.18,0.2-0.2,0.34c-0.02,0.13,0.02,0.27,0.1,0.38l1.61,2.05l-2.79,2.06c-0.11,0.08-0.18,0.2-0.2,0.34
					c-0.02,0.13,0.02,0.27,0.1,0.38l2.71,3.45c0.08,0.11,0.21,0.17,0.34,0.19c0.02,0,0.03,0,0.05,0c0.12,0,0.23-0.04,0.32-0.12
					l3.12-2.61l0.17,0.18l-2.78,2.6c-0.1,0.09-0.16,0.22-0.16,0.36c0,0.13,0.05,0.27,0.15,0.36l3.09,3.11
					c0.09,0.09,0.22,0.15,0.35,0.15c0,0,0,0,0.01,0c0.13,0,0.26-0.06,0.36-0.16l2.63-2.78l0.29,0.33l-2.76,2.58
					c-0.1,0.09-0.16,0.22-0.16,0.36c0,0.13,0.05,0.27,0.15,0.36l3.09,3.11c0.09,0.09,0.22,0.15,0.35,0.15c0,0,0,0,0.01,0
					c0.13,0,0.26-0.06,0.36-0.16l2.63-2.77l0.12,0.12l-2.73,2.82c-0.09,0.1-0.14,0.23-0.14,0.36c0,0.13,0.06,0.26,0.16,0.35
					l3.24,2.95C19.4-19.05,19.52-19,19.65-19c0.01,0,0.02,0,0.03,0c0.14-0.01,0.26-0.07,0.35-0.17l2.43-2.84l1.73,1.43
					c0.09,0.07,0.2,0.11,0.32,0.11c0.02,0,0.04,0,0.05,0c0.13-0.01,0.26-0.08,0.34-0.19l2.29-2.95c0.09-0.02,0.18-0.07,0.24-0.14
					l21.42-23.43C49.03-47.38,49.02-47.68,48.83-47.87z M9.17-41.28c0,0,0.01,0.01,0.01,0.01l1.63,1.63
					c0.19,0.19,0.49,0.2,0.69,0.02c0.78-0.71,1.67-1.27,2.64-1.69l-5.35,4.48l-0.46-0.59l-1.61-2.05L9.17-41.28z M18.23-42.09
					c0.72,0.02,1.46,0.12,2.18,0.31c0,0,0,0,0,0c0.19,0.05,0.38,0.1,0.57,0.17c0.15,0.05,0.31,0.11,0.46,0.17l-8.56,8.59l-0.76-0.81
					c0,0,0,0,0,0l-0.84-0.89c0,0,0,0,0,0l-0.7-0.74L18.23-42.09z M23.11-40.6l-5.89,4.82l5.2-5.22
					C22.66-40.87,22.89-40.74,23.11-40.6z M7.52-32.01l-2.08-2.64l2.4-1.77l0.48,0.61c0.08,0.11,0.21,0.17,0.34,0.19
					c0.13,0.02,0.27-0.03,0.37-0.11L16.53-42c0.04-0.01,0.08-0.01,0.12-0.02L9.54-35.7c-0.1,0.09-0.16,0.22-0.17,0.35
					c-0.01,0.13,0.04,0.27,0.14,0.36l0.69,0.73L7.52-32.01z M11.7-27.98l-2.36-2.38l2.41-2.25l0.77,0.82
					c0.09,0.1,0.22,0.16,0.36,0.16c0.05,0,0.09,0,0.14-0.02l1.04,1.19L11.7-27.98z M23.96-39.99c0.31,0.25,0.57,0.48,0.79,0.7
					c0.25,0.25,0.48,0.51,0.7,0.79c0,0,0,0,0,0c0.1,0.13,0.19,0.26,0.29,0.39l-9.44,8.72l-0.23-0.26l-0.96-1.11c0,0,0,0,0,0
					l-1.01-1.16L23.96-39.99z M15.66-24.03l-2.36-2.38l2.36-2.2l0.23,0.26c0.09,0.1,0.21,0.16,0.35,0.17
					c0.13,0.01,0.27-0.04,0.37-0.13l9.7-8.95c0.05,0.09,0.1,0.18,0.15,0.27l-9.5,8.76c-0.1,0.09-0.16,0.22-0.16,0.36
					c0,0.13,0.05,0.27,0.14,0.36l1.04,1.07L15.66-24.03z M26.86-36.03c0.05,0.13,0.12,0.26,0.16,0.4c0,0,0,0,0,0
					c0.16,0.46,0.28,0.93,0.37,1.41c0.08,0.46,0.13,0.88,0.15,1.28l-7.21,7.49l-0.5-0.51l-0.82-0.84l-1.02-1.04L26.86-36.03z
					 M19.6-20.22l-2.48-2.26l2.35-2.43l0.51,0.52c0.09,0.1,0.22,0.15,0.36,0.15c0,0,0,0,0,0c0.14,0,0.26-0.06,0.36-0.15l3.67-3.81
					l-3.61,4.11c-0.09,0.1-0.13,0.24-0.12,0.37c0.01,0.13,0.08,0.26,0.18,0.35l0.88,0.73L19.6-20.22z M24.43-21.68l-1.71-1.41
					l-0.87-0.72l5.35-6.09c-0.14,0.52-0.33,1.03-0.56,1.52c-0.4,0.85-0.93,1.64-1.56,2.33c-0.18,0.2-0.17,0.5,0.02,0.69l1.24,1.24
					L24.43-21.68z M27.05-24.81l-0.93-0.93c0.56-0.68,1.04-1.42,1.41-2.22c0.53-1.12,0.86-2.33,0.97-3.59
					c0.04-0.44,0.06-0.84,0.05-1.22c-0.01-0.52-0.07-1.05-0.17-1.63c-0.1-0.53-0.23-1.05-0.41-1.55c0,0,0,0,0,0
					c-0.13-0.38-0.29-0.76-0.47-1.14c0,0,0,0,0,0c-0.22-0.46-0.45-0.86-0.68-1.22c0,0,0,0,0,0c-0.18-0.28-0.38-0.54-0.59-0.81
					c0,0,0,0,0,0c-0.24-0.3-0.5-0.59-0.77-0.87c-0.26-0.26-0.56-0.53-0.94-0.83c0,0,0,0,0,0c-0.06-0.05-0.12-0.09-0.19-0.14
					l-0.08-0.06l0,0c-0.54-0.4-1.11-0.74-1.7-1.03c-0.43-0.21-0.84-0.37-1.24-0.5c-0.21-0.07-0.42-0.13-0.63-0.18c0,0,0,0,0,0
					c-0.87-0.23-1.75-0.35-2.61-0.36l-0.12,0c-0.59,0-1.17,0.05-1.72,0.14c-0.59,0.1-1.2,0.25-1.81,0.47
					c-1.19,0.42-2.27,1.03-3.23,1.83l-0.93-0.93l2.79-2.55c0,0,0,0,0,0l19.9-18.19L47.79-47.5L27.05-24.81z"/>
				<path class="st1" d="M27.47-50.45c-0.98,0.98-1.51,2.28-1.51,3.66c0,1.38,0.54,2.68,1.51,3.66c0.98,0.98,2.27,1.51,3.66,1.51
					c1.38,0,2.68-0.54,3.66-1.51c0.98-0.98,1.51-2.27,1.51-3.66c0-1.38-0.54-2.68-1.51-3.66c-0.98-0.98-2.28-1.51-3.66-1.51
					C29.74-51.97,28.45-51.43,27.47-50.45z M35.29-46.8c0,1.11-0.43,2.16-1.22,2.95c-0.79,0.79-1.83,1.22-2.95,1.22
					s-2.16-0.43-2.95-1.22c-0.79-0.79-1.22-1.83-1.22-2.95c0-1.11,0.43-2.16,1.22-2.95c0.79-0.79,1.83-1.22,2.95-1.22
					c1.11,0,2.16,0.43,2.95,1.22C34.86-48.96,35.29-47.91,35.29-46.8z"/>
			</g>
			<g>
				<path class="st1" d="M116.88-21.66l-22.52-5.17c-0.27-0.06-0.54,0.11-0.6,0.38l-0.72,3.12c-0.06,0.27,0.11,0.54,0.38,0.6
					l22.52,5.17c0.27,0.06,0.54-0.11,0.6-0.38l0.72-3.12C117.32-21.33,117.15-21.6,116.88-21.66z M99.7-24.58l2.09,0.48l-0.49,2.15
					l-2.09-0.48L99.7-24.58z M98.23-22.66l-2.09-0.48l0.49-2.15l2.09,0.48L98.23-22.66z M102.76-23.88l2.09,0.48l-0.49,2.15
					l-2.09-0.48L102.76-23.88z M105.83-23.17l2.09,0.48l-0.49,2.15l-2.09-0.48L105.83-23.17z M108.89-22.47l2.09,0.48l-0.49,2.15
					l-2.09-0.48L108.89-22.47z M111.96-21.77l2.09,0.48l-0.49,2.15l-2.09-0.48L111.96-21.77z M94.63-25.75l1.03,0.24l-0.49,2.15
					l-1.03-0.24L94.63-25.75z M115.68-18.65l-1.15-0.26l0.49-2.15l1.15,0.26L115.68-18.65z"/>
				<path class="st1" d="M94.55-27.67l22.52,5.17c0.01,0,0.01,0,0.02,0c0.27,0.06,0.54-0.11,0.6-0.38c0.02-0.07,0.02-0.13,0.01-0.2
					l3.62-31.56c0.03-0.25-0.14-0.49-0.38-0.54l-15.58-3.58c-0.25-0.06-0.5,0.08-0.58,0.32L94.19-28.32
					c-0.05,0.13-0.03,0.28,0.03,0.41C94.29-27.79,94.41-27.7,94.55-27.67z M105.56-57.67l14.71,3.38l-3.52,30.7l-21.43-4.92
					L105.56-57.67z"/>
				<path class="st1" d="M110.17-43.28c-3.49-0.8-6.97,1.38-7.78,4.87c-0.8,3.49,1.38,6.98,4.87,7.78c3.49,0.8,6.97-1.38,7.77-4.87
					C115.84-38.99,113.65-42.48,110.17-43.28z M107.49-31.61c-2.95-0.68-4.8-3.63-4.12-6.58c0.68-2.95,3.63-4.8,6.58-4.12
					c2.95,0.68,4.8,3.63,4.12,6.58C113.38-32.78,110.43-30.93,107.49-31.61z"/>
				<path class="st1" d="M106-19.49l-2.79-0.64c-0.27-0.06-0.54,0.11-0.6,0.38L99.62-6.77c-0.06,0.27,0.11,0.54,0.38,0.6l2.79,0.64
					c0.27,0.06,0.54-0.11,0.6-0.38l2.98-12.99C106.44-19.16,106.27-19.43,106-19.49z M102.53-6.62l-1.82-0.42l2.76-12.01l1.82,0.42
					L102.53-6.62z"/>
			</g>
			<g>
				<path class="st1" d="M83.81-7.21l-14.3-14.3c3.25-4.27,2.88-10.24-0.96-14.08l-6.73-6.73c-0.03-0.03-0.06-0.05-0.11-0.1
					c-0.2-0.18-0.5-0.18-0.7,0.01l-14.9,14.9c-0.19,0.19-0.15,0.53,0.02,0.73c0.01,0.01,0.06,0.07,0.07,0.07l6.74,6.74
					c2.09,2.09,4.84,3.15,7.6,3.15c2.2,0,4.41-0.68,6.3-2.05L81.16-4.55C81.51-4.2,81.98-4,82.49-4c0.5,0,0.97-0.2,1.33-0.55
					C84.54-5.28,84.54-6.47,83.81-7.21z M66.58-19.92C66.58-19.92,66.58-19.92,66.58-19.92c-3.88,3.07-9.43,2.74-12.93-0.75
					l-6.47-6.48l14.2-14.2l6.47,6.47c3.58,3.58,3.84,9.21,0.62,13.1l0,0c0,0,0,0,0,0c-0.19,0.24-0.4,0.46-0.62,0.69l-0.42,0.42
					C67.19-20.43,66.92-20.19,66.58-19.92z M83.11-5.26c-0.33,0.33-0.91,0.33-1.24,0L67.63-19.5c0.18-0.16,0.35-0.32,0.51-0.47
					l0.41-0.42c0.11-0.11,0.22-0.23,0.33-0.34L83.11-6.5C83.45-6.16,83.45-5.6,83.11-5.26z"/>
				<path class="st1" d="M53.65-28.9c-0.6-0.6-1.66-0.6-2.26,0c-0.62,0.62-0.62,1.63,0,2.26l6.33,6.33c0.3,0.3,0.7,0.47,1.13,0.47
					c0.43,0,0.83-0.16,1.13-0.47c0.62-0.62,0.62-1.64,0-2.26L53.65-28.9z M59.28-21.02c-0.22,0.22-0.62,0.23-0.84,0l-6.33-6.33
					c-0.23-0.23-0.23-0.61,0-0.84c0.11-0.11,0.26-0.17,0.42-0.17c0.16,0,0.31,0.06,0.42,0.17l6.33,6.33
					c0.11,0.11,0.17,0.26,0.17,0.42S59.39-21.13,59.28-21.02z"/>
				<path class="st1" d="M57.77-33.01c-0.6-0.6-1.66-0.6-2.26,0c-0.62,0.62-0.62,1.64,0,2.26l6.33,6.33c0.3,0.3,0.7,0.47,1.13,0.47
					c0.43,0,0.83-0.17,1.13-0.47c0.62-0.62,0.62-1.64,0-2.26L57.77-33.01z M63.39-25.13c-0.22,0.23-0.62,0.22-0.84,0l-6.33-6.33
					c-0.23-0.23-0.23-0.61,0-0.84c0.11-0.11,0.26-0.17,0.42-0.17c0.16,0,0.31,0.06,0.42,0.17l6.33,6.33
					C63.63-25.74,63.63-25.36,63.39-25.13z"/>
				<path class="st1" d="M68.68-29.67c0-0.43-0.17-0.83-0.47-1.13l-6.33-6.33c-0.6-0.6-1.65-0.6-2.26,0c-0.62,0.62-0.62,1.63,0,2.26
					l6.33,6.33c0.3,0.3,0.7,0.47,1.13,0.47c0.43,0,0.83-0.17,1.13-0.47C68.52-28.84,68.68-29.24,68.68-29.67z M67.51-29.25
					c-0.23,0.23-0.62,0.22-0.84,0l-6.33-6.33c-0.23-0.23-0.23-0.61,0-0.84c0.11-0.11,0.26-0.18,0.42-0.18
					c0.16,0,0.31,0.06,0.42,0.17l6.33,6.33c0.11,0.11,0.17,0.26,0.17,0.42C67.68-29.51,67.62-29.36,67.51-29.25z"/>
			</g>
			<g>
				<path class="st1" d="M64.58-88.14c-12.05,0-21.86,5.91-21.86,13.18c0,7.27,9.81,13.18,21.86,13.18c1.63,0,3.26-0.11,4.85-0.32
					l-1.31,7.48l1.09-1.03c0.09-0.09,2.35-2.23,6.21-7.85c6.8-2.34,11.02-6.71,11.02-11.46C86.44-82.23,76.63-88.14,64.58-88.14z
					 M74.94-64.4l-0.16,0.05l-0.09,0.14c-2.27,3.31-3.99,5.43-5.04,6.61l1-5.71l-0.69,0.11c-1.75,0.27-3.56,0.41-5.38,0.41
					c-11.5,0-20.86-5.46-20.86-12.18c0-6.72,9.36-12.18,20.86-12.18s20.86,5.46,20.86,12.18C85.44-70.63,81.41-66.58,74.94-64.4z"/>
				<polygon class="st1" points="53.39,-76.81 55.18,-76.81 55.18,-71.75 55.83,-71.75 55.83,-76.81 57.62,-76.81 57.62,-77.39 
					53.39,-77.39 				"/>
				<path class="st1" d="M59.93-77.42l-2.23,5.67h0.66l0.7-1.79h2.26l0.7,1.79h0.68l-2.22-5.67H59.93z M59.29-74.14l0.66-1.75
					c0.11-0.3,0.19-0.57,0.24-0.82c0.09,0.32,0.18,0.59,0.26,0.82l0.66,1.75H59.29z"/>
				<path class="st1" d="M65.1-74.87c-0.35-0.13-0.61-0.24-0.78-0.35c-0.17-0.1-0.29-0.22-0.37-0.34c-0.07-0.13-0.11-0.29-0.11-0.48
					c0-0.26,0.1-0.47,0.29-0.62c0.2-0.15,0.47-0.22,0.81-0.22c0.44,0,0.89,0.1,1.36,0.29l0.21-0.57c-0.47-0.21-0.99-0.31-1.55-0.31
					c-0.54,0-0.97,0.13-1.3,0.39c-0.33,0.26-0.49,0.6-0.49,1.04c0,0.41,0.11,0.75,0.34,1.01c0.22,0.26,0.6,0.48,1.12,0.67
					c0.38,0.13,0.66,0.25,0.84,0.36c0.18,0.11,0.31,0.22,0.39,0.35c0.08,0.13,0.12,0.28,0.12,0.48c0,0.3-0.11,0.53-0.33,0.69
					c-0.22,0.17-0.55,0.25-0.99,0.25c-0.27,0-0.54-0.03-0.81-0.08c-0.27-0.06-0.53-0.13-0.76-0.23v0.63
					c0.36,0.17,0.88,0.26,1.54,0.26c0.62,0,1.11-0.14,1.47-0.42c0.36-0.28,0.54-0.67,0.54-1.16c0-0.39-0.11-0.7-0.33-0.94
					C66.1-74.44,65.69-74.66,65.1-74.87z"/>
				<polygon class="st1" points="67.1,-76.81 68.89,-76.81 68.89,-71.75 69.55,-71.75 69.55,-76.81 71.33,-76.81 71.33,-77.39 
					67.1,-77.39 				"/>
				<polygon class="st1" points="73.62,-74.57 72.13,-77.39 71.41,-77.39 73.29,-73.91 73.29,-71.75 73.95,-71.75 73.95,-73.94 
					75.84,-77.39 75.13,-77.39 				"/>
			</g>
			<path class="st1" d="M28.75-68.41c-1.73,0-3.14-1.85-3.14-4.13s1.41-4.13,3.14-4.13s3.14,1.85,3.14,4.13S30.48-68.41,28.75-68.41
				z M28.75-75.66c-1.18,0-2.14,1.4-2.14,3.13c0,1.72,0.96,3.13,2.14,3.13c1.18,0,2.14-1.4,2.14-3.13
				C30.88-74.26,29.92-75.66,28.75-75.66z"/>
			<path class="st1" d="M89.36-49.37c-1.73,0-3.14-1.85-3.14-4.12c0-2.28,1.41-4.13,3.14-4.13c1.73,0,3.14,1.85,3.14,4.13
				C92.5-51.22,91.09-49.37,89.36-49.37z M89.36-56.62c-1.18,0-2.14,1.4-2.14,3.13c0,1.72,0.96,3.12,2.14,3.12
				c1.18,0,2.14-1.4,2.14-3.12C91.5-55.22,90.54-56.62,89.36-56.62z"/>
			<path class="st1" d="M74.4-123.06c-2.15,0-3.91-1.28-3.99-2.92c-0.09-1.73,1.68-3.23,3.95-3.35c2.33-0.12,4.19,1.18,4.29,2.92
				c0.05,0.87-0.36,1.7-1.15,2.33c-0.74,0.6-1.74,0.96-2.81,1.02C74.59-123.06,74.5-123.06,74.4-123.06z M74.65-128.34
				c-0.08,0-0.16,0-0.24,0.01c-1.72,0.09-3.07,1.12-3.01,2.3c0.06,1.16,1.51,2.07,3.23,1.97c0.86-0.04,1.66-0.33,2.23-0.79
				c0.53-0.43,0.81-0.96,0.78-1.5C77.59-127.47,76.27-128.34,74.65-128.34z"/>
			<path class="st1" d="M112.45-71.44c-2.19,0-3.9-1.26-3.99-2.92c-0.05-0.87,0.36-1.7,1.15-2.33c0.74-0.6,1.74-0.96,2.81-1.02
				c2.33-0.14,4.19,1.18,4.28,2.92c0.05,0.87-0.36,1.7-1.15,2.33c-0.74,0.6-1.74,0.96-2.81,1.02
				C112.65-71.44,112.55-71.44,112.45-71.44z M112.71-76.73c-0.08,0-0.16,0-0.24,0.01c-0.86,0.05-1.65,0.33-2.23,0.8
				c-0.53,0.43-0.81,0.96-0.78,1.5c0.06,1.16,1.51,2.05,3.23,1.97c0.86-0.05,1.66-0.33,2.23-0.8c0.53-0.43,0.81-0.96,0.78-1.5
				C115.64-75.86,114.33-76.73,112.71-76.73z"/>
			<path class="st1" d="M75.04-115.75c-1.39,0-2.49-0.82-2.54-1.91c-0.03-0.57,0.24-1.13,0.75-1.54c0.47-0.38,1.09-0.61,1.76-0.64
				l0.18,0c1.39,0,2.49,0.82,2.54,1.91c0.03,0.57-0.24,1.13-0.75,1.54c-0.47,0.38-1.09,0.61-1.76,0.64L75.04-115.75z M75.19-118.84
				l-0.13,0c-0.46,0.02-0.89,0.18-1.19,0.42c-0.15,0.12-0.4,0.37-0.38,0.71c0.03,0.53,0.72,0.96,1.55,0.96l0.13,0
				c0.45-0.02,0.89-0.18,1.19-0.42c0.15-0.12,0.4-0.37,0.38-0.71C76.71-118.41,76.01-118.84,75.19-118.84z"/>
			<path class="st1" d="M95.64-65.32c-1.39,0-2.49-0.82-2.54-1.91c-0.03-0.57,0.24-1.13,0.75-1.54c0.47-0.38,1.09-0.61,1.76-0.64
				l0.18,0c1.39,0,2.49,0.82,2.54,1.91c0.02,0.46-0.15,0.92-0.48,1.29c-0.47,0.52-1.21,0.85-2.03,0.89L95.64-65.32z M95.79-68.41
				l-0.13,0c-0.46,0.02-0.89,0.18-1.19,0.42c-0.15,0.12-0.4,0.37-0.38,0.71c0.03,0.53,0.72,0.96,1.54,0.96l0.13,0
				c0.55-0.03,1.05-0.24,1.34-0.56c0.11-0.12,0.24-0.32,0.23-0.57C97.3-67.98,96.61-68.41,95.79-68.41z"/>
			<path class="st1" d="M63.7,0c-1.39,0-2.49-0.82-2.54-1.91c-0.03-0.57,0.24-1.13,0.75-1.54c0.47-0.38,1.09-0.61,1.76-0.64l0.18,0
				c1.39,0,2.49,0.82,2.54,1.91c0.02,0.46-0.15,0.92-0.48,1.29C65.44-0.37,64.7-0.05,63.88,0L63.7,0z M63.85-3.09l-0.13,0
				c-0.46,0.02-0.89,0.18-1.19,0.42c-0.15,0.12-0.4,0.37-0.38,0.71C62.18-1.43,62.87-1,63.7-1l0.13,0c0.55-0.03,1.05-0.24,1.34-0.56
				c0.11-0.12,0.24-0.32,0.23-0.57C65.37-2.66,64.67-3.09,63.85-3.09z"/>
			<path class="st1" d="M106.26-79.75c-0.14,0-0.28-0.02-0.42-0.05c-0.44-0.11-0.83-0.42-1.08-0.85c-0.36-0.61-0.44-1.41-0.24-2.2
				c0.36-1.4,1.55-2.31,2.64-2.02c1.11,0.29,1.69,1.63,1.32,3.05C108.16-80.6,107.25-79.75,106.26-79.75z M106.75-83.93
				c-0.52,0-1.06,0.57-1.25,1.33c-0.14,0.53-0.09,1.07,0.13,1.44c0.08,0.14,0.23,0.33,0.47,0.39c0.55,0.15,1.2-0.47,1.42-1.31
				c0.22-0.85-0.05-1.69-0.6-1.83C106.86-83.92,106.8-83.93,106.75-83.93z"/>
			<path class="st1" d="M16.45-5.17c-2.19,0-3.9-1.26-3.99-2.92c-0.05-0.87,0.36-1.7,1.15-2.33c0.74-0.6,1.74-0.96,2.81-1.02
				c2.33-0.14,4.19,1.18,4.28,2.92c0.05,0.87-0.36,1.7-1.15,2.33c-0.74,0.6-1.74,0.96-2.81,1.02C16.64-5.17,16.55-5.17,16.45-5.17z
				 M16.7-10.45c-0.08,0-0.16,0-0.24,0.01c-0.86,0.05-1.65,0.33-2.23,0.8c-0.53,0.43-0.81,0.96-0.78,1.5
				c0.06,1.16,1.51,2.05,3.23,1.97c0.86-0.04,1.66-0.33,2.23-0.79c0.53-0.43,0.81-0.96,0.78-1.5C19.64-9.58,18.32-10.45,16.7-10.45z
				"/>
			<path class="st1" d="M10.25-13.47c-0.14,0-0.28-0.02-0.42-0.05c-0.44-0.11-0.83-0.42-1.08-0.85c-0.36-0.61-0.44-1.41-0.24-2.2
				c0.36-1.4,1.55-2.3,2.64-2.02c1.11,0.29,1.69,1.63,1.32,3.05C12.16-14.33,11.25-13.47,10.25-13.47z M10.74-17.65
				c-0.52,0-1.06,0.57-1.25,1.33c-0.14,0.53-0.09,1.07,0.13,1.44c0.08,0.14,0.23,0.33,0.47,0.39c0.55,0.15,1.2-0.47,1.42-1.31
				c0.22-0.85-0.05-1.69-0.6-1.83C10.85-17.65,10.8-17.65,10.74-17.65z"/>
			<path class="st1" d="M114.15-62.23c-1.39,0-2.49-0.82-2.54-1.91c-0.06-1.14,1.04-2.1,2.51-2.18l0.18,0c1.4,0,2.49,0.82,2.55,1.91
				c0.03,0.57-0.24,1.13-0.75,1.54c-0.47,0.38-1.09,0.61-1.76,0.64L114.15-62.23z M114.3-65.32l-0.13,0
				c-0.88,0.05-1.59,0.56-1.56,1.13c0.03,0.53,0.72,0.96,1.54,0.96l0.13,0c0.46-0.02,0.89-0.18,1.19-0.42
				c0.15-0.12,0.4-0.37,0.38-0.71C115.82-64.89,115.13-65.32,114.3-65.32z"/>
			<path class="st1" d="M34.43-12.49c-1.39,0-2.49-0.82-2.54-1.91c-0.03-0.57,0.24-1.13,0.75-1.54c0.47-0.38,1.09-0.61,1.76-0.64
				l0.18,0c1.39,0,2.49,0.82,2.54,1.91c0.02,0.46-0.15,0.91-0.49,1.29c-0.47,0.52-1.21,0.85-2.03,0.89L34.43-12.49z M34.58-15.58
				l-0.13,0c-0.46,0.02-0.89,0.18-1.19,0.42c-0.15,0.12-0.4,0.37-0.38,0.71c0.03,0.53,0.72,0.96,1.54,0.96l0.13,0
				c0.55-0.03,1.05-0.24,1.34-0.56c0.11-0.12,0.24-0.32,0.23-0.57C36.09-15.15,35.4-15.58,34.58-15.58z"/>
			<path class="st1" d="M38.64-91.26c-0.91,0-1.58-0.23-2.07-0.71c-0.92-0.9-0.87-2.46-0.82-3.96c0.05-1.41,0.1-2.87-0.62-3.68
				l0.75-0.66c0.99,1.11,0.93,2.77,0.87,4.38c-0.05,1.35-0.09,2.62,0.52,3.21c0.33,0.32,0.86,0.45,1.63,0.41l0.05,1
				C38.85-91.27,38.74-91.26,38.64-91.26z"/>
			<path class="st1" d="M82.48-123.74c-0.23-1.04-0.13-1.85,0.3-2.47c0.74-1.05,2.28-1.25,3.77-1.45c1.4-0.18,2.85-0.37,3.53-1.21
				l0.78,0.63c-0.93,1.15-2.58,1.37-4.18,1.57c-1.34,0.17-2.6,0.34-3.08,1.03c-0.26,0.38-0.31,0.92-0.14,1.68L82.48-123.74z"/>
			<path class="st1" d="M67.28-44.23c-0.23-1.04-0.13-1.85,0.3-2.47c0.74-1.05,2.28-1.25,3.77-1.45c1.4-0.18,2.85-0.37,3.53-1.21
				l0.78,0.63c-0.93,1.15-2.58,1.37-4.18,1.57c-1.34,0.17-2.6,0.34-3.08,1.03c-0.26,0.38-0.31,0.92-0.14,1.68L67.28-44.23z"/>
			<path class="st1" d="M8.18-62.92c-0.24-1.46,0.7-2.84,1.61-4.16c0.76-1.11,1.48-2.16,1.28-2.99c-0.1-0.45-0.48-0.85-1.16-1.22
				l0.49-0.87c0.93,0.52,1.47,1.13,1.64,1.87c0.29,1.25-0.58,2.54-1.43,3.78c-0.8,1.17-1.62,2.37-1.45,3.44L8.18-62.92z"/>
			<path class="st1" d="M45.87-10.37c-1.21,0-2.41-0.69-3.57-1.36c-1.17-0.67-2.27-1.3-3.08-1.04c-0.44,0.14-0.81,0.55-1.13,1.25
				l-0.91-0.42c0.45-0.97,1.01-1.56,1.73-1.79c1.22-0.39,2.58,0.38,3.88,1.13c1.23,0.7,2.5,1.42,3.54,1.17l0.24,0.97
				C46.34-10.39,46.11-10.37,45.87-10.37z"/>
			<path class="st1" d="M91.5-6.02l-1-0.03c0.04-1.48,1.22-2.66,2.36-3.79c0.96-0.95,1.86-1.85,1.82-2.69
				c-0.02-0.46-0.32-0.92-0.91-1.42l0.64-0.77c0.82,0.69,1.23,1.39,1.26,2.14c0.05,1.29-1.05,2.38-2.12,3.44
				C92.56-8.13,91.53-7.1,91.5-6.02z"/>
		</g>
		<g>
			<path class="st1" d="M63.7-133.73c-1.39,0-2.49-0.82-2.54-1.91c-0.03-0.57,0.24-1.13,0.75-1.54c0.47-0.38,1.09-0.61,1.76-0.64
				l0.18,0c1.39,0,2.49,0.82,2.54,1.91c0.02,0.46-0.15,0.92-0.48,1.29c-0.47,0.52-1.21,0.85-2.03,0.89L63.7-133.73z M63.85-136.83
				l-0.13,0c-0.46,0.02-0.89,0.18-1.19,0.42c-0.15,0.12-0.4,0.37-0.38,0.71c0.03,0.53,0.72,0.96,1.54,0.96l0.13,0
				c0.55-0.03,1.05-0.24,1.34-0.56c0.11-0.12,0.24-0.32,0.23-0.57C65.37-136.39,64.67-136.83,63.85-136.83z"/>
		</g>
	</g>
</pattern>
<g>
	<defs>
		<rect id="SVGID_7_" x="-570.29" y="-202.86" width="252.32" height="167.24"/>
	</defs>
	<clipPath id="SVGID_1_">
		<use xlink:href="#SVGID_7_"  style="overflow:visible;"/>
	</clipPath>
	<pattern  id="SVGID_3_" xlink:href="#New_Pattern_2" patternTransform="matrix(0.3733 0 0 0.3733 -2420.5911 -5630.3647)">
	</pattern>
	
		<rect x="-570.29" y="-202.86" style="opacity:0.5;clip-path:url(#SVGID_1_);fill:url(#SVGID_3_);" width="1072.59" height="596.86"/>
</g>
<g>
	<defs>
		<rect id="SVGID_10_" x="-297.98" y="-232.64" width="252.28" height="197.02"/>
	</defs>
	<clipPath id="SVGID_4_">
		<use xlink:href="#SVGID_10_"  style="overflow:visible;"/>
	</clipPath>
	<g style="clip-path:url(#SVGID_4_);">
	</g>
</g>
<g>
	<path class="st2" d="M71.26,26.8l-10.11,0.01c0,0,0,0-0.01,0c-0.91,0-1.26-0.28-1.69-0.99c-0.45-0.75-0.82-4.35,3.13-4.35l8.68,0"
		/>
	<path class="st32" d="M59.18,18.05c-0.02-0.27-0.02-0.85,0.35-1.33c0.36-0.45,0.88-0.59,1.16-0.64c0.78-0.15,3.05-0.08,5.27-0.08
		c2.89-0.01,5.14-0.02,5.14-0.02v4.11l-10.26,0c-0.21-0.06-0.51-0.18-0.8-0.42C59.33,19.1,59.21,18.27,59.18,18.05z"/>
	<path class="st2" d="M82.95,11.83c0,0-0.14-1.99-2.05-3.87c-0.57-0.56-2.1-1.92-4.52-2.63c-0.76-0.22-1.98-0.45-3.09-0.52
		c-1.2-0.08-2.02-0.08-2.23-0.08c-0.16,0-0.98-0.01-2.24,0.08c-1.1,0.07-2.32,0.3-3.07,0.52c-2.4,0.71-3.93,2.07-4.49,2.63
		c-1.89,1.88-2.03,3.87-2.03,3.87s-0.18,0.96,0.27,1.77c0.44,0.79,2.06,0.9,2.06,0.9l9.49,0l9.56,0c0,0,1.64-0.12,2.08-0.9
		C83.13,12.79,82.95,11.83,82.95,11.83z M64.17,13.11l-1.03-0.54l-1.03,0.54l0.2-1.14l-0.83-0.81l1.15-0.17l0.51-1.04l0.51,1.04
		l1.15,0.17l-0.83,0.81L64.17,13.11z M68.14,9.99l-1.03-0.54l-1.03,0.54l0.2-1.14l-0.83-0.81l1.15-0.17l0.51-1.04l0.51,1.04
		l1.15,0.17l-0.83,0.81L68.14,9.99z M72.11,13.11l-1.03-0.54l-1.03,0.54l0.2-1.14l-0.83-0.81l1.15-0.17l0.51-1.04l0.51,1.04
		l1.15,0.17l-0.83,0.81L72.11,13.11z M76.03,9.99l-1.03-0.54l-1.03,0.54l0.2-1.14l-0.83-0.81l1.15-0.17l0.51-1.04l0.51,1.04
		l1.15,0.17l-0.83,0.81L76.03,9.99z M79.95,13.11l-1.03-0.54l-1.03,0.54l0.2-1.14l-0.83-0.81l1.15-0.17l0.51-1.04l0.51,1.04
		l1.15,0.17l-0.83,0.81L79.95,13.11z"/>
	<g>
		<g>
			<path class="st2" d="M21.45,23.85l-2.77,2.9H5.78v-6.8h1.06v-8.67H5.78v-6.8h12.9l2.77,2.9V23.85z M20.77,7.7l-2.39-2.51H6.46
				v5.38h1.1v10.09h-1.1v5.38h11.92l2.39-2.51V7.7z M20.32,23.34l-2.13,2.23H6.94v-4.45h1.1V10.09h-1.1V5.64h11.25l2.13,2.23V23.34z
				 M16.06,21.11V10.09h-3.84v11.03H16.06z M12.68,20.66V10.57h2.9v10.09H12.68z M14.9,19.95v-8.67h-1.55v8.67H14.9z"/>
			<path class="st2" d="M39.69,19.95v6.8H22.41v-6.8h1.29l1.77-8.67h-0.93v-6.8h13.02v6.8h-0.93l1.77,8.67H39.69z M37.89,20.66
				c-0.37-1.74-0.71-3.42-1.05-5.05c-0.33-1.62-0.68-3.3-1.05-5.04h1.1V5.19H25.22v5.38h1.13l-2.11,10.09h-1.15v5.38h7.38v-5.38
				h-0.93v-0.13h3.06c0,0.02,0,0.04,0.02,0.05s0.02,0.04,0.02,0.08h-0.97v5.38h7.35v-5.38H37.89z M38.57,21.11v4.45h-6.42v-4.45
				h1.06l-0.23-1.1h-3.84l-0.23,1.1h1.06v4.45h-6.42v-4.45h1.06l2.29-11.03H25.7V5.64h10.7v4.45h-1.19l2.29,11.03H38.57z
				 M30.09,15.57h1.97l-1-4.77L30.09,15.57z M31.05,13.18l0.39,1.93h-0.77L31.05,13.18z"/>
			<path class="st2" d="M55.59,11.28c-0.32,0.41-0.62,0.78-0.9,1.11c-0.28,0.33-0.56,0.67-0.84,1c-0.28,0.33-0.56,0.68-0.84,1.03
				c-0.28,0.35-0.59,0.75-0.94,1.18l3.51,4.32h1.58v6.83H40.82v-6.83h1.1v-8.64h-1.1V4.45h16.34v6.83H55.59z M56.49,10.57V5.16H49.2
				v5.42h0.32l-1.23,1.52c-0.13,0.19-0.29,0.39-0.47,0.58v-2.1h1.03V5.16H41.5v5.42h1.1v10.06h-1.1v5.42h7.35v-5.42h-1.03v-2.22
				l0.47,0.71c0.19,0.26,0.39,0.52,0.6,0.77s0.42,0.51,0.63,0.74H49.2v5.42h7.29v-5.42h-1.23c-0.62-0.82-1.3-1.66-2.03-2.53
				c-0.73-0.87-1.41-1.7-2.03-2.5c0.71-0.9,1.39-1.75,2.03-2.53c0.64-0.78,1.32-1.62,2.03-2.5H56.49z M55.04,10.09l-4.45,5.51
				l4.45,5.51h0.97v4.45h-6.42v-4.45h0.94c-0.45-0.56-0.9-1.11-1.34-1.64c-0.44-0.54-0.9-1.08-1.37-1.64H47.3v3.29h1.1v4.45h-6.42
				v-4.45h1.13V10.09h-1.13V5.64h6.42v4.45h-1.1v3.29h0.52c0.47-0.56,0.93-1.11,1.37-1.64c0.44-0.54,0.89-1.08,1.34-1.64h-0.94V5.64
				h6.42v4.45H55.04z"/>
		</g>
	</g>
	<g id="Forma_1_11_">
		<g>
			<rect x="5.7" y="28.81" class="st2" width="77.27" height="2.56"/>
		</g>
	</g>
	<g>
		<g>
			<path class="st2" d="M9.61,39.41H6.06v-1.38H6.4v-3.44H6.06v-1.37h3.55l0.69,0.69v2.06l-0.35,0.34l0.35,0.35v2.06L9.61,39.41z
				 M8.92,34.59H7.78v1.04h1.15V34.59z M8.92,37H7.78v1.03h1.15V37z"/>
			<path class="st2" d="M25.21,34.59h-0.34v4.13l-0.69,0.69h-2.56l-0.69-0.69v-4.13h-0.34v-1.38h2.06v1.38h-0.34v3.44h1.18v-3.44
				h-0.34v-1.38h2.06V34.59z"/>
			<path class="st2" d="M39.88,39.41h-1.91v-1.37h0.28V37h-1.07v1.04h0.34v1.37h-2.07v-1.37h0.35v-3.45h-0.35v-1.37h3.48l0.69,0.69
				v2.06l-0.34,0.34l0.34,0.35v1.38h0.25V39.41z M38.25,34.59h-1.07v1.04h1.07V34.59z"/>
			<path class="st2" d="M53.59,39.41h-2.79l-0.69-0.69V33.9l0.69-0.69h2.79l0.69,0.69v1.38H52.9v-0.69H51.5v3.44h1.41v-0.69h-1.03
				v-1.37h2.41v2.75L53.59,39.41z"/>
			<path class="st2" d="M64.54,39.41v-1.38h0.35v-3.44h-0.35v-1.38h4.17v2.07h-1.38v-0.69h-1.07v1.03h1.33V37h-1.33v1.03h1.07v-0.69
				h1.38v2.07H64.54z"/>
			<path class="st2" d="M83.41,39.41H81.5v-1.37h0.28V37h-1.07v1.04h0.34v1.37h-2.07v-1.37h0.35v-3.45h-0.35v-1.37h3.48l0.69,0.69
				v2.06l-0.34,0.34l0.34,0.35v1.38h0.25V39.41z M81.78,34.59h-1.07v1.04h1.07V34.59z"/>
		</g>
	</g>
	<path class="st32" d="M82.96,18.05c0.02-0.27,0.02-0.85-0.35-1.33c-0.36-0.45-0.88-0.59-1.16-0.64C80.67,15.94,78.39,16,76.17,16
		c-2.89-0.01-5.14-0.02-5.14-0.02v4.11l10.26,0c0.21-0.06,0.51-0.18,0.8-0.42C82.81,19.1,82.93,18.27,82.96,18.05z"/>
	<path class="st2" d="M70.89,26.8L81,26.81c0,0,0,0,0.01,0c0.91,0,1.26-0.28,1.69-0.99c0.45-0.75,0.82-4.35-3.13-4.35l-8.68,0"/>
</g>
</svg>
